<?xml version="1.0" encoding="utf-8"?>
<!-- Generator: Adobe Illustrator 21.0.2, SVG Export Plug-In . SVG Version: 6.00 Build 0)  -->
<svg version="1.1" id="Layer_1" xmlns="http://www.w3.org/2000/svg" xmlns:xlink="http://www.w3.org/1999/xlink" x="0px" y="0px"
	 viewBox="0 0 528 216" style="enable-background:new 0 0 528 216;" xml:space="preserve">
<style type="text/css">
	.st0{fill:#7D898C;}
	.st1{fill:#E6E7E8;}
	.st2{fill:#A7AFB8;}
</style>
<path class="st0" d="M553,216H347V0h206V216z"/>
<path class="st1" d="M353.5,0l101.1,54l-101.1,54l101.1,54l-101.1,54h-288V0H353.5z"/>
<path class="st2" d="M454.6,54l-88.1,61l-13-6.9L454.6,54z"/>
<path class="st0" d="M377.5,73.1c-3.1-2-6-4.4-8.5-7.2c-1.5-1.6-2.6-3.4-3.4-5.4c-0.9-2.4-1.3-4.9-1.2-7.4c0.1-3,1.2-5.8,3.2-8.1
	c1.5-1.8,3.2-3.3,5.2-4.5c2.1-1.2,4.2-2.3,6.4-3.4c1.5-0.7,3-1.3,4.5-1.9c2.1-0.8,4.4-1.3,6.7-1.3c1.7-0.1,3.3,0.5,4.5,1.7
	c1.2,1.3,1.7,3,1.6,4.7c-0.2,1.8-0.8,3.6-1.9,5l-2.9,4.5c-1.2,2.2-1.9,4.6-1.9,7.1c0.1,2.4,0.4,4.7,0.9,7c0.4,1.9,0.5,3.7,0.4,5.6
	c-0.2,3.6-3.3,6.3-6.9,6.1c-0.9-0.1-1.7-0.3-2.5-0.7L377.5,73.1z M355.8,42.9c-1.1,1.7-2.7,2.9-4.6,3.4c-2,0.6-4,0.6-6,0.1
	c-2.9-0.6-5.6-2-7.7-4.1c-1.6-1.6-2.6-3.7-2.8-5.9c-0.1-1.4,0.5-2.8,1.5-3.7c1.5-1.7,3.7-2.6,5.9-2.7c1.8-0.1,3.6,0.1,5.3,0.7
	c3.3,0.9,6.1,3.1,7.8,6.1c0.8,1.3,1.2,2.8,1.1,4.3C356.2,41.7,356,42.3,355.8,42.9z M349.7,51.8c1.4,0.7,2.5,1.9,3.2,3.4
	c0.9,1.8,0.7,4-0.6,5.5c-0.9,1.3-2.1,2.3-3.5,3.1c-1.8,1-3.8,1.7-5.9,1.8c-2.5,0.2-5.1-0.2-7.4-1.3c-2.4-1-4.1-3.2-4.4-5.8
	c-0.1-1,0.2-1.9,0.7-2.8c1.1-2,3-3.6,5.1-4.4c2.4-0.9,4.9-1.3,7.4-1C346.1,50.3,348,50.8,349.7,51.8L349.7,51.8z M367.5,22.1
	c2,1.1,3.7,2.7,4.8,4.6c1.2,1.8,1.6,4,1.1,6.1c-0.3,1.3-1.1,2.3-2.3,3c-2.2,1.3-4.9,1.6-7.3,0.7c-1.6-0.4-3-1.1-4.3-2.1
	c-2.5-1.6-4.2-4.1-4.8-7c-0.4-1.5-0.3-3,0.5-4.3c1-1.5,2.6-2.5,4.4-2.8c1.6-0.3,3.2-0.2,4.7,0.4l3.3,1.2L367.5,22.1z M366.6,74.8
	c-1.7,2.5-4.2,4.4-7.1,5.2c-2.1,0.7-4.4,0.8-6.6,0.3c-1.3-0.2-2.5-0.7-3.6-1.4c-2.5-1.9-3-5.5-1.1-8c0-0.1,0.1-0.1,0.1-0.2
	c1.3-1.6,3-3,4.9-3.8c2.2-1,4.7-1.5,7.1-1.2c1.6,0.1,3.2,0.7,4.5,1.6c1.7,1,2.7,3,2.6,5C367.3,73.1,367,74,366.6,74.8z"/>
</svg>
