<svg id="bane" xmlns="http://www.w3.org/2000/svg" viewBox="0 0 567.06 567.06"><defs><style>.cls-1{fill:#ccc;}.cls-2{fill:#2d2827;}.cls-3{fill:#383130;}.cls-4{fill:#3e3635;}.cls-5{fill:#fff;}.cls-6{fill:#231c15;}.cls-7{fill:#e9e4e3;}</style></defs><title>bane</title><circle class="cls-1" cx="283.53" cy="283.53" r="283.53"/><path class="cls-2" d="M231,318.79l70.07-28.17c-33.8-11.2-74.54-12.2-97.91,32.62L164,325.56s25.67,39.33,25.83,40.07c2.6,12.1,25.66,118.13,40.6,139.6a5.53,5.53,0,0,0,9.06.06c5.56-7.74,11.31-25.75,15.29-40.06a5.51,5.51,0,0,1,10.63,0l10.85,39.87a5.48,5.48,0,0,0,7.58,3.59c6.93-3.35,11-11.85,13.94-18.47,6.65-14.88,10.37-30.76,13.55-46.69a4.14,4.14,0,0,1,6.18-2.77l.2.13c17.69,13,43,31.91,41.37,56.73-.29,4.37,2.3,9.63,7.65,7.08C398,405.38,231,318.79,231,318.79Z"/><path class="cls-3" d="M424.51,437.81c.22,1.31.42,2,.58,1.85,49.9-47.59-3.68-34-3.68-34v0c-7.26-23.8-26.07-52.13-63.09-85.45a6.45,6.45,0,0,0-.88-.67c-3-1.88-27.08-19.25-56.36-29L231,318.79s167,86.59,135.7,185.95C385.44,495.82,419.69,474.51,424.51,437.81Z"/><path class="cls-4" d="M434.67,146.3a8.88,8.88,0,0,0-8.72-2.27l-2.52.71-80.89,22.77-11.29,3.18.07.62c-4.92-9.77-14.93-17.4-26.14-23.23L231,318.79h0c3.77,9.3,10.9,15.53,16.09,23.86a46,46,0,0,0,10.53,12.16,28.58,28.58,0,0,0,10.7,5.33c19,4.57,36.15-14.08,46.77-27.17,12.75-15.72,18.29-32.47,27.34-50.13,3.21-6.26,7.8-14.51,13.77-20.1,30.39,5.91,50-16.5,62.51-43.72,10.53-23,16-49.33,18.49-65A8.82,8.82,0,0,0,434.67,146.3Z"/><path class="cls-2" d="M305.16,148.08c-18.26-9.5-39.75-14.27-47.84-15.82L230.89,50.83a13.14,13.14,0,0,0-21.63-5.39C203.93,50.6,197.71,57,191.42,64.17c-13.13,15-26.52,33.66-32.64,52.37-6.79,20.75-4.63,41.59,16.77,57.74-.13.62-.26,1.24-.42,1.86-5.13,20.27-16.63,38.12-23.62,57.7s-6.1,39.57-1.23,59.7c2.3,9.52,7.15,17.72,10.59,26.82a13.85,13.85,0,0,0,2.73,5c6.08,6.16,32.81-1.18,40.52-2.29q13.47-2,26.88-4.27h0Z"/><path class="cls-5" d="M200.8,216.86c4.43-4,8.26-5.5,11.52-5.57-5.09-3.44-12.06-3.83-21.21,4.32-.83-.25-1,31.57,26.26,19.57C200,238.93,200.16,216.66,200.8,216.86Z"/><path class="cls-5" d="M324.09,262.66c3.56,2.45,5.83,7.12,4.63,15.65.58.48-22.92,16.28-26.28-11.42-.22.41-.32.78-.19,1,3.75,35.91,32.52,15.66,31.8,15.09C335.63,269.86,330.48,264.5,324.09,262.66Z"/><path class="cls-5" d="M241.66,130.86l-21.91-67.5a6.45,6.45,0,0,0-10.52-2.75C189.43,79,140.17,131.16,185,159.55Z"/><path class="cls-5" d="M343.37,183.05l68.32-19.23a6.45,6.45,0,0,1,8.12,7.22c-4.29,26.66-20.37,96.6-68.88,75Z"/><path class="cls-6" d="M228.17,263.77a2.94,2.94,0,0,1,3.34-3.9c8.51,1.74,25.8,6.89,36.1,21.21,2.39,2.6-18.64,8.91-26.2,11.07a2.94,2.94,0,0,1-3.57-1.82Z"/><path class="cls-5" d="M256.76,279.07s-2.16-7.87-7.54-3.07c-.2-.06-.24,8.15,7.14,4.07C256.58,280,256.76,279.07,256.76,279.07Z"/><path class="cls-5" d="M239.07,384.7S223,446.57,253,443.85C253.71,443.17,280.85,439.77,239.07,384.7Z"/><path class="cls-5" d="M291.56,183.91l-29.65-13.58a81.59,81.59,0,0,1,4,20.9c.08,1.45-.17,3.32-1.57,3.68-1,.25-2-.49-2.74-1.18L246.13,180a267.45,267.45,0,0,0,1.51,41.87c.55,4.76,1.16,9.88-1.09,14.11-3.49,6.54-12,8.06-19.34,9.05-15.44,2.09-31.26,5.34-44,14.27-17.11,12-26.54,34-23.37,54.68.85,5.52,3.12,11.61,8.33,13.65,3.13,1.22,6.64.69,9.95.13L225,319.91c2-.34,4.23-.66,6.09.23l58.18-135.37Z"/><path class="cls-7" d="M234.86,324.33c7.33,12.24,14.17,26,26.86,32.51a30.37,30.37,0,0,0,21.68,2.45,26.49,26.49,0,0,0,16.75-13.73c3.44-7.16,3.2-15.51,2.23-23.4a143.11,143.11,0,0,0-7.86-32.25c-3.79-10.21-8.36-21-16.13-28.88a17.22,17.22,0,0,1-2.2-3.09c-1-4.92,1.12-11.17,4.26-15,1.43-1.76,3.88-2.3,5.89-3.15q4.07-1.74,8-3.84a98.32,98.32,0,0,0,27.26-21.71l-20.41-5c-1.38-.34-3.07-1.08-3-2.49,0-1,1-1.7,1.88-2.22a87.15,87.15,0,0,1,18.52-8.17l-27-12.36-2.33.85L231.05,320.14C232.78,321,233.88,322.68,234.86,324.33Z"/><path class="cls-6" d="M226.82,268.93a2.94,2.94,0,0,1,3.34-3.9c8.51,1.74,25.8,6.89,36.1,21.21,2.39,2.6-18.64,8.91-26.2,11.07a2.94,2.94,0,0,1-3.57-1.82Z"/><path class="cls-5" d="M255.4,284.22s-2.16-7.87-7.54-3.07c-.2-.06-.24,8.15,7.14,4.07C255.23,285.2,255.4,284.22,255.4,284.22Z"/></svg>