<svg xmlns="http://www.w3.org/2000/svg" width="3.2in" height="3.1in" viewBox="0 0 228 225.2"><path fill="#721825" d="M114 5.6a107.3 107.3 0 1 0 107.3 107.3A107.3 107.3 0 0 0 114 5.6zm1 200.8a93.5 93.5 0 1 1 93.5-93.5 93.5 93.5 0 0 1-93.5 93.5z"/><path fill="#721825" d="M114 36.7v150.4a75.2 75.2 0 0 0 0-150.4z"/><path fill="#8e1e35" d="M38.8 111.9a75.2 75.2 0 0 0 75.2 75.2V36.7a75.2 75.2 0 0 0-75.2 75.2z"/><circle cx="113.7" cy="152" r="12.6" fill="#fff"/><path fill="#fff" d="M113.6 133.4c-.9-.5-2.8-5.5-3.1-6.2-1-2.4-1.9-4.8-2.8-7.2-1.8-4.7-3.5-9.5-5.3-14.2l-8.8-22c-3.2-8 16-9.9 19-10.2a29.9 29.9 0 0 1 19.2 5.2c1.4.9 3.2 2 2.4 4.4-2.8 8.3-6.4 16.3-9.7 24.4s-7 17.1-10.6 25.6c0 .2-.1.2-.3.2z"/></svg>