<svg xmlns="http://www.w3.org/2000/svg" width="528" height="3in" viewBox="0 0 394.5 219"><path fill="#626d71" d="M403.5 219H281.4V.01h122.1z"/><path fill="#e6e7e8" d="M288 0l102.5 54.7L288 109.5l102.5 54.7L288 219H-4V0h292z"/><path fill="#a7afb8" d="M390.5 54.7l-89.3 61.8-13.2-7 102.5-54.8z"/><path fill="#626d71" d="M312.3 74.1a42.9 42.9 0 0 1-8.6-7.3 17 17 0 0 1-3.4-5.5 17.8 17.8 0 0 1-1.2-7.5 13.4 13.4 0 0 1 3.2-8.2 21.3 21.3 0 0 1 5.3-4.6c2.1-1.2 4.3-2.3 6.5-3.4a38.7 38.7 0 0 1 4.6-1.9 19.3 19.3 0 0 1 6.8-1.3 6.1 6.1 0 0 1 4.6 1.7 6.3 6.3 0 0 1 1.6 4.8 10.3 10.3 0 0 1-1.9 5.1l-2.9 4.6a14.5 14.5 0 0 0-1.9 7.2 36.8 36.8 0 0 0 .9 7.1 23.1 23.1 0 0 1 .4 5.7 6.6 6.6 0 0 1-9.5 5.5zm-22-30.6a8 8 0 0 1-4.7 3.4 11.6 11.6 0 0 1-6.1.1 15.4 15.4 0 0 1-7.8-4.2 9.1 9.1 0 0 1-2.8-6 5.1 5.1 0 0 1 1.5-3.8 8.3 8.3 0 0 1 6-2.7 15 15 0 0 1 5.4.7 13.2 13.2 0 0 1 7.9 6.2 7.3 7.3 0 0 1 1.1 4.4 10 10 0 0 1-.5 1.9zm-6.2 9a7.2 7.2 0 0 1 3.2 3.4 5.2 5.2 0 0 1-.6 5.6 11.2 11.2 0 0 1-3.5 3.1 13.5 13.5 0 0 1-6 1.8 14.3 14.3 0 0 1-7.5-1.3 7.3 7.3 0 0 1-4.5-5.9 4.7 4.7 0 0 1 .7-2.8 10.1 10.1 0 0 1 5.2-4.5 16 16 0 0 1 7.5-1 12.6 12.6 0 0 1 5.5 1.6zm18.1-30.1a12.8 12.8 0 0 1 4.9 4.7 8.2 8.2 0 0 1 1.1 6.2 4.8 4.8 0 0 1-2.3 3 8.7 8.7 0 0 1-7.4.7 14.8 14.8 0 0 1-4.4-2.1 11.6 11.6 0 0 1-4.9-7.1 5.6 5.6 0 0 1 .5-4.4 6.5 6.5 0 0 1 4.5-2.8 8.9 8.9 0 0 1 4.8.4l3.3 1.2zm-.9 53.4a12.9 12.9 0 0 1-7.2 5.3 13.2 13.2 0 0 1-6.7.3 9 9 0 0 1-3.6-1.4 5.8 5.8 0 0 1-1-8.3 13.8 13.8 0 0 1 5-3.9 13.4 13.4 0 0 1 7.2-1.2 9.5 9.5 0 0 1 4.6 1.6 5.4 5.4 0 0 1 2.6 5.1 13.2 13.2 0 0 1-.9 2.5z"/></svg>