<svg xmlns="http://www.w3.org/2000/svg"><symbol id="about-you-icon" viewBox="0 0 170.3 156.7"><circle cx="86.4" cy="78.5" r="75.2" fill="#fff"/><path fill="#626d71" d="M90.9 71.8a4.9 4.9 0 0 1 1.9-4.5 20 20 0 0 0 7.5-16c0-10.6-7.6-19.2-16.9-19.2s-17 8.5-17 19.1A20.2 20.2 0 0 0 73 66.4a4.8 4.8 0 0 1 1.6 2.8 12.5 12.5 0 0 1 .2 2.2 5 5 0 0 1-3.3 4.6 34.2 34.2 0 0 0-22.4 32.1h68.5a34.3 34.3 0 0 0-23.4-32.5 4.9 4.9 0 0 1-3.3-3.8z"/></symbol><symbol id="error" viewBox="0 0 228 225.2"><path fill="#721825" d="M114 5.6a107.3 107.3 0 1 0 107.3 107.3A107.3 107.3 0 0 0 114 5.6zm1 200.8a93.5 93.5 0 1 1 93.5-93.5 93.5 93.5 0 0 1-93.5 93.5z"/><path fill="#721825" d="M114 36.7v150.4a75.2 75.2 0 0 0 0-150.4z"/><path fill="#8e1e35" d="M38.8 111.9a75.2 75.2 0 0 0 75.2 75.2V36.7a75.2 75.2 0 0 0-75.2 75.2z"/><circle cx="113.7" cy="152" r="12.6" fill="#fff"/><path fill="#fff" d="M113.6 133.4c-.9-.5-2.8-5.5-3.1-6.2-1-2.4-1.9-4.8-2.8-7.2-1.8-4.7-3.5-9.5-5.3-14.2l-8.8-22c-3.2-8 16-9.9 19-10.2a29.9 29.9 0 0 1 19.2 5.2c1.4.9 3.2 2 2.4 4.4-2.8 8.3-6.4 16.3-9.7 24.4s-7 17.1-10.6 25.6c0 .2-.1.2-.3.2z"/></symbol><symbol id="lifestyle-icon" viewBox="0 0 170.3 156.7"><circle cx="86.4" cy="78.5" r="75.2" fill="#fff"/><path fill="#626d71" d="M91.6 53.1l-6.4-4.6-6 4.6-29.7 21.1v37.2a3.9 3.9 0 0 0 4 3.8h63.8a3.9 3.9 0 0 0 4-3.8V74z"/><path fill="#626d71" d="M91.5 39.9L89 38.2a6.3 6.3 0 0 0-7.1.1l-2.5 1.8L36 70.5a3.4 3.4 0 0 0-.8 4.8 3.4 3.4 0 0 0 4.8.8l43.5-30.6a3.4 3.4 0 0 1 3.9 0l45.4 31.1a3.4 3.4 0 0 0 4.8-.9 3.4 3.4 0 0 0-.9-4.7z"/></symbol><symbol id="other-info" viewBox="0 0 170.3 156.7"><circle cx="86.4" cy="78.5" r="75.2" fill="#fff"/><circle cx="86.4" cy="48.3" r="11.3" fill="#626d71"/><path fill="#626d71" d="M65.8 64.2v4.3l13.1 3V108l-12.1 2.8v4.4h44v-4.4l-14.2-3.2v-36h.1v-7.4H65.8z"/></symbol><symbol id="pet-info-icon" viewBox="0 0 170.3 156.7"><circle cx="86.4" cy="78.5" r="75.2" fill="#fff"/><path fill="#626d71" d="M109.3 97.9c-1.2-4-4.3-8.7-10.5-14.3h-.1a47.5 47.5 0 0 0-4.3-2.6l1.7-3.6a12.5 12.5 0 0 1 2.3-3.4c5.1 1 8.3-2.8 10.4-7.3a44.2 44.2 0 0 0 3.1-10.8 1.5 1.5 0 0 0-1.9-1.7h-.4l-13.5 3.9-1.9.5a9.8 9.8 0 0 0-4.4-3.9l-2.5 5.9 2.5-5.9a31.6 31.6 0 0 0-8-2.6l-4.3-13.4a2.2 2.2 0 0 0-3.6-.9l-3 3.1a27.1 27.1 0 0 0-5.4 8.7c-1.1 3.5-.8 6.9 2.8 9.6v.3c-.9 3.4-2.8 6.4-3.9 9.6a17.1 17.1 0 0 0-.2 10 37.8 37.8 0 0 0 1.8 4.5 2.3 2.3 0 0 0 .5.8h.1l4.3 6.7c.4 2 4.3 19.7 6.8 23.3a.9.9 0 0 0 1.5 0c.9-1.3 1.9-4.3 2.6-6.7a.9.9 0 0 1 1.8 0l1.8 6.7a.9.9 0 0 0 1.3.6c1.2-.6 1.8-2 2.3-3.1a36.4 36.4 0 0 0 2.3-7.8.7.7 0 0 1 1-.5c2.9 2.2 7.2 5.3 6.9 9.5 0 .7.4 1.6 1.3 1.2 3.1-1.5 8.8-5 9.6-11.2 0 .2.1.3.1.3 8-7.8-.9-5.5-.9-5.5z"/></symbol></svg>