<svg xmlns="http://www.w3.org/2000/svg" id="wally" width="74" height="88.5" viewBox="0 0 74 88.5"><path fill="none" d="M42.44 62.41h6.08v6.34h-6.08z"/><path fill="#052460" d="M22.4 51.42a14 14 0 0 1 2.12 1.25c.72.54 1.38 1.21 2.06 1.82a4.62 4.62 0 0 1 .64.55s.92.85 2.11 2.16l.07.29c5-.78 16.23-3.85 21.53-15.8-.22-.45-.43-.9-.67-1.34l-.19-.45-.07.1c-.22-.39-.45-.78-.69-1.16-1-1.51-1.87-3.06-2.74-4.65C46 33.08 45.5 31.94 45 30.8c2.9-11.51-8.75-24.39-8.84-24.39 2.26 6.34 1.75 13.35.87 18.25.15-8-.87-18.25-.87-18.25l-.41 14.16a42.5 42.5 0 0 0-7.63-12.29c2.1 5.88 1.81 12.32 1.06 17.13h-.17c0-7.8-.89-17.18-.89-17.18L27.62 26l-3.31 1c-.19.09-.39.16-.58.26-.39.22-.77.49-1.17.7a2 2 0 0 0-1.13 1.68A1.6 1.6 0 0 1 20.32 31a10 10 0 0 1-1.92.85 12.07 12.07 0 0 1-2 .25l-2.69.29c-.69.08-1.38.15-2.08.25-.4.05-.79.16-1.18.22l-1.77.26a3.18 3.18 0 0 0-2.23.46 1.43 1.43 0 0 0-.9 1.26 7.52 7.52 0 0 0 .16 3.57c.32 1.3.69 2.58.93 3.92a3.81 3.81 0 0 0 .49 1.2 25.23 25.23 0 0 0 1.46 2.33A6 6 0 0 0 12 48.55a4.27 4.27 0 0 0 .74 0 4.09 4.09 0 0 1 3.07 1.81 4.12 4.12 0 0 0 .86.67c.14.1.28.18.41.29.44.36.92.18 1.39.22a4 4 0 0 1 .47.14 5.34 5.34 0 0 0 1 .19 2.06 2.06 0 0 0 .74-.19c.57-.19 1.13-.55 1.72-.26z"/><path fill="#052460" d="M57.27 68.75h7.11v-10l-3.26-3.81-.2-.24a37.76 37.76 0 0 0-4.18-4.81A24.1 24.1 0 0 1 54.53 47c-3.19 2.91-16.6 14.26-33.6 16.13l.06.2a9.24 9.24 0 0 1 .51 1.44c.37 1.34.71 2.68 1 4h28.69v-6.36h6.08zM4.98 72.72H3.42v8h4.03v-1.34H4.98v-6.66zM11 75.36a3 3 0 0 0-2.1.73 2.8 2.8 0 0 0 0 4.07 3 3 0 0 0 2.1.73 3 3 0 0 0 2.1-.73 2.8 2.8 0 0 0 0-4.07 3 3 0 0 0-2.1-.73zm0 4.23a1.47 1.47 0 1 1 1.46-1.46A1.45 1.45 0 0 1 11 79.6zm6.52-1.11l-1.61-2.95h-1.7l2.47 4.41-1.91 3.53h1.65l4.19-7.94h-1.66l-1.43 2.95zm7.54-2.28a1.88 1.88 0 0 0-1.67-.84 2.6 2.6 0 0 0-2.58 2.76 2.64 2.64 0 0 0 2.65 2.77 1.86 1.86 0 0 0 1.59-.84v.67h1.46v-5.19h-1.45zm-1.29 3.4a1.47 1.47 0 1 1 1.44-1.48 1.42 1.42 0 0 1-1.44 1.48zm4.15-7.62h1.46v8.74h-1.46zM38 77a2.19 2.19 0 0 0 .94-1.88 2.27 2.27 0 0 0-.79-1.8 2.94 2.94 0 0 0-2-.6h-2.36v8h1.56v-3.21h.19l2.13 3.21h1.94l-2.49-3.37A2.23 2.23 0 0 0 38 77zm-2.21-.6h-.44V74h.47c.29 0 1.51 0 1.51 1.2s-1.24 1.21-1.54 1.21zm7.15-1.04a2.66 2.66 0 0 0-2 .73 2.77 2.77 0 0 0-.79 2 2.62 2.62 0 0 0 .82 2 2.72 2.72 0 0 0 2 .73 2.57 2.57 0 0 0 2.55-1.62l-1.34-.22a1.34 1.34 0 0 1-1.21.68 1.24 1.24 0 0 1-1-.49 1.53 1.53 0 0 1-.25-.87h3.89v-.12a3.11 3.11 0 0 0-.62-2 2.48 2.48 0 0 0-2.05-.82zm-1.19 2.08a1.25 1.25 0 0 1 2.46 0zm7.25-.03l-.35-.11c-.41-.13-.47-.34-.47-.47s.22-.42.56-.42a1.22 1.22 0 0 1 .85.35l.72-.85a2.59 2.59 0 0 0-1.65-.55 2.14 2.14 0 0 0-1.36.37 1.54 1.54 0 0 0-.54 1.18 1.39 1.39 0 0 0 .4 1 2.82 2.82 0 0 0 1.12.62l.34.12a.58.58 0 0 1 .46.53c0 .36-.31.56-.72.56a1.61 1.61 0 0 1-1.15-.6l-.77.89a2.62 2.62 0 0 0 2 .86 2.18 2.18 0 0 0 1.56-.55 1.73 1.73 0 0 0 .54-1.34 1.51 1.51 0 0 0-.26-.86 2.66 2.66 0 0 0-1.28-.73zM52.21 76a2.78 2.78 0 0 0-.9 2.11 2.67 2.67 0 0 0 .83 2 3 3 0 0 0 3.35.43v-1.4a1.7 1.7 0 0 1-1.15.46 1.45 1.45 0 0 1-1.51-1.48 1.39 1.39 0 0 1 1.46-1.46 1.69 1.69 0 0 1 1.2.46v-1.45a3.1 3.1 0 0 0-1.4-.31 2.77 2.77 0 0 0-1.88.64zm7.95 2.47a1.17 1.17 0 0 1-.31.91 1.18 1.18 0 0 1-1.49 0 1.17 1.17 0 0 1-.31-.91v-2.94h-1.46v3.18a2 2 0 0 0 .64 1.59 3.31 3.31 0 0 0 3.77 0 2 2 0 0 0 .64-1.59v-3.18h-1.48zm7.99-.22a3.11 3.11 0 0 0-.62-2 2.48 2.48 0 0 0-2-.85 2.66 2.66 0 0 0-2 .73 2.77 2.77 0 0 0-.79 2 2.62 2.62 0 0 0 .82 2 2.72 2.72 0 0 0 2 .73 2.57 2.57 0 0 0 2.55-1.62l-1.34-.22a1.34 1.34 0 0 1-1.21.68 1.24 1.24 0 0 1-1-.49 1.53 1.53 0 0 1-.25-.87h3.89zm-3.84-.82a1.25 1.25 0 0 1 2.46 0z"/></svg>