<svg id="pencil-dog" xmlns="http://www.w3.org/2000/svg" viewBox="0 0 624.44 620.01"><defs><style>.cls-1{fill:#c06e32;}.cls-2{fill:#fae4d7;}.cls-3{fill:#231f20;}.cls-4{fill:#e9cfc2;}.cls-5{fill:#a56c40;}.cls-6{fill:#8d5d3a;}.cls-7{fill:#231c15;}.cls-8{fill:#fff;}.cls-9{fill:#373f4b;}.cls-10{fill:#2a3039;}.cls-11{fill:#3b424f;}</style></defs><title>pencil-dog</title><polygon class="cls-1" points="469.47 620 427.69 544.7 163.94 410.54 124.57 487.94 367.11 611.32 469.47 620"/><polygon class="cls-2" points="427.69 544.7 363.62 539.47 381.5 569.92 323 547.17 367.11 611.32 469.47 620 427.69 544.7"/><polygon class="cls-3" points="445.27 576.38 425 616.23 469.47 620 445.27 576.38"/><polygon class="cls-4" points="96.34 376.16 56.97 453.56 99.38 475.13 108.66 479.85 148.03 402.45 96.34 376.16"/><polygon points="108.66 479.85 124.57 487.94 124.57 487.94 108.66 479.85 108.66 479.85"/><polygon points="163.94 410.54 148.03 402.45 148.03 402.45 163.94 410.54 163.94 410.54"/><rect x="92.88" y="436.28" width="86.84" height="17.84" transform="translate(-322.31 364.84) rotate(-63.04)"/><path class="cls-5" d="M296.12,330.17,201.85,539.81l17.91,6.95a56.3,56.3,0,0,0,49.34-4.22l111.25-66.79Z"/><path class="cls-6" d="M137.36,404.1,168.44,504a56.3,56.3,0,0,0,33.41,35.77l94.27-209.64Z"/><path class="cls-7" d="M189.87,465.5a6.09,6.09,0,0,1,6.91-8.06c17.62,3.59,53.4,14.27,74.72,43.89,4.95,5.37-38.58,18.44-54.23,22.92a6.09,6.09,0,0,1-7.4-3.77Z"/><path class="cls-8" d="M249,497.15s-4.48-16.28-15.61-6.36c-.42-.13-.49,16.86,14.77,8.42C248.67,499.18,249,497.15,249,497.15Z"/><path class="cls-9" d="M492.52,81.67c-23.2-24-53.21-43.65-86.07-57L296.12,330.17l-27.78,61.77c2.84-.48,5.69-.92,8.53-1.42,7.8,19.26,22.56,32.14,33.31,49.38,5.9,9.47,13,18.32,21.79,25.17a59.16,59.16,0,0,0,22.14,11c39.27,9.46,74.82-29.15,96.8-56.24,18.85-23.24,27.77-49.55,41.91-75.31,17.67-32.21,38.81-61.21,47.44-97.85C554,188.35,533.91,124.44,492.52,81.67Z"/><path class="cls-10" d="M406.45,24.65C338.71-2.9,258.79-3.48,200.94,41.43c-15.5,12-28.28,26.68-36.14,44.82-8.43,19.46-13.15,40.07-22.06,59.43-10.51,22.81-22,45.34-30.41,69-14.52,40.65-12.62,81.91-2.55,123.57,4.76,19.71,14.79,36.68,21.93,55.5,1.4,3.71,2.88,7.52,5.66,10.34,12.58,12.75,67.9-2.43,83.88-4.75q23.6-3.42,47.11-7.42l27.78-61.77Z"/><path class="cls-11" d="M210.59,150.31a49.86,49.86,0,0,1-41.42,32.42L20.22,198.93C8.3,200.23,3,188.79,10.35,177.47c42.07-64.9,163.48-233.16,248.5-158.92Z"/><path class="cls-8" d="M249.45,233.82C260.75,238.68,267,244.5,270,250.57c2-12.55-3.36-26-26.66-36-.25-1.78-60.08,25.78-13.76,66.37C207.34,251.63,249.26,232.46,249.45,233.82Z"/><path class="cls-8" d="M378.12,298.33c8.69-2.14,19,.77,30.58,14.35,1.53-.24-6.33,57.85-53.81,24.95.34.91.76,1.57,1.29,1.67,60.7,43.57,68.94-28.78,67.08-28.44C405.11,290.39,389.76,291,378.12,298.33Z"/><path class="cls-11" d="M496.42,158.78,467,244.8a49.86,49.86,0,0,0,11.78,51.27L584.27,402.42c8.45,8.52,19.76,3,21.18-10.46,3.69-34.71,8.07-96,1.4-152.33a92.28,92.28,0,0,1-110.43-80.85Z"/><path class="cls-10" d="M512.42,112l-16,46.73a92.28,92.28,0,0,0,110.43,80.85C598.74,171.1,574.3,109.76,512.42,112Z"/></svg>