<svg xmlns="http://www.w3.org/2000/svg" width="468.89" height="465.56" viewBox="0 0 468.89 465.56"><path fill="#c06e32" d="M346.72 457.24l-29.97-54.01-189.15-96.22-28.24 55.51 173.95 88.49 73.41 6.23z"/><path fill="#fae4d7" d="M316.75 403.23l-45.94-3.75 12.82 21.84L241.67 405l31.64 46 73.41 6.24-29.97-54.01z"/><path fill="#231f20" d="M329.36 425.95l-14.54 28.58 31.9 2.71-17.36-31.29z"/><path fill="#e9cfc2" d="M79.12 282.36l-28.24 55.51 30.42 15.47 6.65 3.38 28.24-55.51-37.07-18.85z"/><path d="M87.95 356.72l11.41 5.8-11.41-5.8zm39.65-49.71l-11.41-5.8 11.41 5.8zm-39.645 49.707l28.236-55.512 11.409 5.803-28.236 55.512z"/><path fill="#a56c40" d="M222.4 249.37l-67.61 150.35 12.85 5a40.38 40.38 0 0 0 35.38-3l79.79-47.9z"/><path fill="#8d5d3a" d="M108.54 302.4l22.29 71.67a40.38 40.38 0 0 0 24 25.65l67.57-150.35z"/><path fill="#231c15" d="M146.19 346.43a4.36 4.36 0 0 1 5-5.78c12.64 2.58 38.3 10.23 53.59 31.48 3.55 3.85-27.67 13.22-38.89 16.44a4.37 4.37 0 0 1-5.31-2.71z"/><path fill="#fff" d="M188.62 369.13s-3.21-11.68-11.19-4.56c-.3-.09-.35 12.09 10.59 6 .35.01.6-1.44.6-1.44z"/><path fill="#373f4b" d="M363.25 71.15c-16.64-17.15-38.16-31.3-61.73-40.89L222.4 249.37l-19.92 44.3c2-.35 4.08-.66 6.12-1 5.59 13.81 16.18 23 23.89 35.42a68.21 68.21 0 0 0 15.63 18.05A42.43 42.43 0 0 0 264 354c28.16 6.79 53.66-20.9 69.42-40.34 13.52-16.66 19.92-35.54 30.05-54 12.68-23.1 27.83-43.9 34-70.17 9.87-41.83-4.54-87.66-34.22-118.34z"/><path fill="#2a3039" d="M301.52 30.26c-48.58-19.76-105.9-20.18-147.39 12-11.13 8.67-20.28 19.17-25.91 32.18-6 14-9.43 28.74-15.82 42.62-7.53 16.36-15.74 32.52-21.81 49.5-10.41 29.15-9 58.74-1.83 88.62 3.41 14.14 10.61 26.3 15.73 39.8 1 2.66 2.06 5.4 4.06 7.42 9 9.15 48.7-1.74 60.15-3.4q16.92-2.45 33.79-5.32l19.92-44.3z"/><path fill="#3b424f" d="M161.06 120.38a35.76 35.76 0 0 1-29.71 23.25L24.53 155.25c-8.55.93-12.34-7.28-7.08-15.39C47.63 93.31 134.7-27.36 195.67 25.89z"/><path fill="#fff" d="M188.93 180.27c8.1 3.49 12.58 7.66 14.71 12 1.44-9-2.41-18.64-19.12-25.83-.18-1.27-43.09 18.49-9.87 47.6-15.92-21.04 14.14-34.74 14.28-33.77zm92.27 46.26c6.23-1.53 13.66.55 21.93 10.29 1.1-.17-4.54 41.49-38.59 17.89.24.65.55 1.12.92 1.2 43.53 31.25 49.44-20.64 48.11-20.4-13.01-14.67-24.02-14.25-32.37-8.98z"/><path fill="#3b424f" d="M366 126.46l-21.12 61.69a35.76 35.76 0 0 0 8.45 36.77L429 301.19c6.06 6.11 14.17 2.12 15.19-7.5 2.64-24.9 5.79-68.82 1-109.25a66.18 66.18 0 0 1-79.2-58z"/><path fill="#2a3039" d="M377.52 92.94L366 126.46a66.18 66.18 0 0 0 79.2 58c-5.77-49.17-23.3-93.16-67.68-91.52z"/></svg>
