<svg xmlns="http://www.w3.org/2000/svg" width="2.4in" height="2.2in" viewBox="0 0 170.3 156.7"><circle cx="86.4" cy="78.5" r="75.2" fill="#fff"/><path fill="#626d71" d="M109.3 97.9c-1.2-4-4.3-8.7-10.5-14.3h-.1a47.5 47.5 0 0 0-4.3-2.6l1.7-3.6a12.5 12.5 0 0 1 2.3-3.4c5.1 1 8.3-2.8 10.4-7.3a44.2 44.2 0 0 0 3.1-10.8 1.5 1.5 0 0 0-1.9-1.7h-.4l-13.5 3.9-1.9.5a9.8 9.8 0 0 0-4.4-3.9l-2.5 5.9 2.5-5.9a31.6 31.6 0 0 0-8-2.6l-4.3-13.4a2.2 2.2 0 0 0-3.6-.9l-3 3.1a27.1 27.1 0 0 0-5.4 8.7c-1.1 3.5-.8 6.9 2.8 9.6v.3c-.9 3.4-2.8 6.4-3.9 9.6a17.1 17.1 0 0 0-.2 10 37.8 37.8 0 0 0 1.8 4.5 2.3 2.3 0 0 0 .5.8h.1l4.3 6.7c.4 2 4.3 19.7 6.8 23.3a.9.9 0 0 0 1.5 0c.9-1.3 1.9-4.3 2.6-6.7a.9.9 0 0 1 1.8 0l1.8 6.7a.9.9 0 0 0 1.3.6c1.2-.6 1.8-2 2.3-3.1a36.4 36.4 0 0 0 2.3-7.8.7.7 0 0 1 1-.5c2.9 2.2 7.2 5.3 6.9 9.5 0 .7.4 1.6 1.3 1.2 3.1-1.5 8.8-5 9.6-11.2 0 .2.1.3.1.3 8-7.8-.9-5.5-.9-5.5z"/></svg>