<svg width="336" height="336" viewBox="0 0 252 252">
  <g id="step-2">
    <g id="background">
      <circle cx="129.1" cy="127.6" r="114.6" fill="#a7afb8"/>
      <path fill="#969ca2" d="M128.2 13a114.6 114.6 0 0 0 0 229.2h1.3V13z"/>
      <path fill="#fff" d="M197 188.2L169.8 58a13.7 13.7 0 0 0-16.2-10.6L78 63.2a13.7 13.7 0 0 0-9.8 16l27.2 130.2a13.7 13.7 0 0 0 16.2 10.6l75.6-15.8a13.7 13.7 0 0 0 9.8-16z"/>
      <path fill="#abc6d7" d="M95.4 209.4L68.2 79.2a13.7 13.7 0 0 1 9.8-16l-3.2.7a13.7 13.7 0 0 0-10.5 16.2l27.2 130.2a13.7 13.7 0 0 0 16.2 10.6l78.8-16.5.7-.2-75.6 15.8a13.7 13.7 0 0 1-16.2-10.6z"/>
      <path fill="#abc6d7" d="M160.2 65.2a3.6 3.6 0 0 0-7 .9l-14 2.9a3.6 3.6 0 0 0-6.9 1.4l-14 2.9a3.6 3.6 0 0 0-6.9 1.4l-14 2.9a3.6 3.6 0 0 0-6.9 1.4l-9.9 2a.6.6 0 0 0-.5.7.6.6 0 0 0 .7.5l9.8-2a3.6 3.6 0 0 0 6.9-1.4l13.9-2.9a3.6 3.6 0 0 0 6.9-1.4l13.9-2.9a3.6 3.6 0 0 0 6.9-1.4l13.9-2.9a3.6 3.6 0 0 0 6.9-1.9z"/>
      <circle cx="94.2" cy="78.8" r="1.1" fill="#fff" transform="rotate(-11.6 93.96 78.671)"/>
      <circle cx="115" cy="74.6" r="1.1" fill="#fff" transform="rotate(-11.6 114.791 74.322)"/>
      <circle cx="136" cy="70.3" r="1.1" fill="#fff" transform="rotate(-11.6 135.623 69.973)"/>
      <circle cx="156.9" cy="66" r="1.1" fill="#fff" transform="rotate(-11.6 156.455 65.624)"/>
      <rect width="35" height=".88" x="83.7" y="88.4" fill="#323941" transform="rotate(-11.6 100.885 88.824)"/>
      <rect width="35" height=".88" x="85.1" y="95.4" fill="#323941" transform="rotate(-11.6 102.154 95.915)"/>
      <rect width="35" height=".88" x="86.5" y="102.2" fill="#323941" transform="rotate(-11.6 103.965 102.565)"/>
      <rect width="35" height=".88" x="125.6" y="79.8" fill="#323941" transform="rotate(-11.6 142.549 80.126)"/>
      <rect width="35" height=".88" x="126.9" y="86.9" fill="#323941" transform="rotate(-11.6 144.31 87.267)"/>
      <rect width="35" height=".88" x="128.4" y="93.8" fill="#323941" transform="rotate(-11.6 145.63 93.866)"/>
      <rect width="35" height=".88" x="131.8" y="113" fill="#323941" transform="rotate(-11.6 149.144 113.121)"/>
      <rect width="35" height=".88" x="132.5" y="116.6" fill="#323941" transform="rotate(-11.6 149.778 116.667)"/>
      <rect width="35" height=".88" x="133.2" y="120" fill="#323941" transform="rotate(-11.6 150.413 120.213)"/>
      <rect width="81.7" height=".44" x="85.8" y="104.9" fill="#abc6d7" transform="rotate(-11.6 126.608 104.865)"/>
      <rect width="81.7" height=".44" x="94.2" y="145.9" fill="#abc6d7" transform="rotate(-11.6 134.864 145.986)"/>
      <rect width="81.7" height=".44" x="102.4" y="185.4" fill="#323941" transform="rotate(-11.6 142.828 185.089)"/>
      <rect width="39.6" height="4.46" x="82.3" y="86.4" fill="#abc6d7" transform="rotate(-11.6 101.92 88.432)"/>
      <rect width="39.6" height="4.46" x="83.7" y="93.3" fill="#abc6d7" transform="rotate(-11.6 103.189 95.523)"/>
      <rect width="39.6" height="4.46" x="124.6" y="84.9" fill="#abc6d7" transform="rotate(-11.6 143.818 87.217)"/>
      <rect width="39.6" height="4.46" x="85.1" y="100.2" fill="#abc6d7" transform="rotate(-11.6 104.508 102.122)"/>
      <rect width="39.6" height="4.46" x="96.2" y="154.4" fill="#abc6d7" transform="rotate(-11.6 115.894 156.492)"/>
      <rect width="39.6" height="4.46" x="97.6" y="161.2" fill="#abc6d7" transform="rotate(-11.6 117.213 163.091)"/>
      <rect width="39.6" height="4.46" x="99" y="168.1" fill="#abc6d7" transform="rotate(-11.6 118.482 170.183)"/>
      <rect width="39.6" height="4.46" x="100.4" y="175" fill="#abc6d7" transform="rotate(-11.6 119.8 176.782)"/>
      <rect width="39.6" height="4.46" x="101.8" y="181.9" fill="#abc6d7" transform="rotate(-11.6 121.07 183.873)"/>
      <rect width="6.6" height="4.46" x="134.6" y="178.6" fill="#323941" transform="rotate(-11.6 137.321 180.55)"/>
      <rect width="6.6" height="4.46" x="133.2" y="171.7" fill="#323941" transform="rotate(-11.6 136.052 173.46)"/>
      <rect width="6.6" height="4.46" x="131.8" y="164.8" fill="#323941" transform="rotate(-11.6 134.733 166.86)"/>
      <rect width="6.6" height="4.46" x="130.4" y="157.9" fill="#323941" transform="rotate(-11.6 133.464 159.769)"/>
      <rect width="6.6" height="4.46" x="129" y="151.1" fill="#323941" transform="rotate(-11.6 132.146 153.17)"/>
      <rect width="39.6" height="4.46" x="137.1" y="146" fill="#abc6d7" transform="rotate(-11.6 156.573 147.694)"/>
      <rect width="39.6" height="4.46" x="138.5" y="152.9" fill="#abc6d7" transform="rotate(-11.6 157.842 154.785)"/>
      <rect width="39.6" height="4.46" x="140" y="159.7" fill="#abc6d7" transform="rotate(-11.6 159.603 161.927)"/>
      <rect width="39.6" height="4.46" x="141.4" y="166.6" fill="#abc6d7" transform="rotate(-11.6 160.922 168.526)"/>
      <rect width="39.6" height="4.46" x="142.8" y="173.5" fill="#abc6d7" transform="rotate(-11.6 162.191 175.617)"/>
      <rect width="6.6" height="4.46" x="175.6" y="170.2" fill="#323941" transform="rotate(-11.6 178.443 172.295)"/>
      <rect width="6.6" height="4.46" x="174.1" y="163.3" fill="#323941" transform="rotate(-11.6 177.174 165.203)"/>
      <rect width="6.6" height="4.46" x="172.7" y="156.4" fill="#323941" transform="rotate(-11.6 175.363 158.554)"/>
      <rect width="6.6" height="4.46" x="171.3" y="149.5" fill="#323941" transform="rotate(-11.6 174.094 151.463)"/>
      <rect width="6.6" height="4.46" x="169.9" y="142.7" fill="#323941" transform="rotate(-11.6 172.775 144.864)"/>
      <rect width="39.6" height="4.46" x="87.6" y="112.6" fill="#abc6d7" transform="rotate(-11.6 107.196 114.828)"/>
      <rect width="39.6" height="4.46" x="128.6" y="104.2" fill="#abc6d7" transform="rotate(-11.6 147.875 106.03)"/>
      <rect width="39.6" height="19.22" x="90.5" y="119" fill="#abc6d7" transform="rotate(-11.6 109.783 128.519)"/>
      <rect width="39.6" height="26.45" x="132.2" y="110.6" fill="#abc6d7" transform="rotate(-11.6 151.59 123.316)"/>
      <rect width="39.6" height="4.46" x="93.5" y="140.7" fill="#abc6d7" transform="rotate(-11.6 113.306 142.802)"/>
      <rect width="39.7" height="4.46" x="126" y="91.8" fill="#abc6d7" transform="rotate(-11.6 145.63 93.866)"/>
      <rect width="39.6" height="4.46" x="123.2" y="78.1" fill="#abc6d7" transform="rotate(-11.6 142.549 80.126)"/>
      <rect width="34.7" height="8.6" x="128.3" y="192.4" fill="#323941" transform="rotate(-11.6 145.174 196.268)"/>
      <rect width="22" height=".88" x="136.3" y="196.1" fill="#fff" transform="rotate(-11.6 146.7 195.926)"/>
      <path fill="#fff" d="M26.5 60a12 12 0 0 1 1.3-5.1 17.9 17.9 0 0 1 4.1-5.3 39 39 0 0 1 7.6-5.3 73.8 73.8 0 0 1 11.6-5 57.9 57.9 0 0 0 6.8-2.7A18.6 18.6 0 0 0 62 34a6.9 6.9 0 0 0 1.9-2.6 7.9 7.9 0 0 0 .5-2.8 6 6 0 0 0-.9-3.2 7.9 7.9 0 0 0-2.6-2.5 13.6 13.6 0 0 0-4.1-1.7 22.9 22.9 0 0 0-5.5-.6 34.7 34.7 0 0 0-6.3.4 15.6 15.6 0 0 0-5.1 1.8 9.5 9.5 0 0 0-3.4 3.4 10.1 10.1 0 0 0-1.2 5.2h-8.8a15.8 15.8 0 0 1 1.7-7.6 14.7 14.7 0 0 1 5-5.4 24 24 0 0 1 7.9-3.2 47.2 47.2 0 0 1 10.4-1 39.6 39.6 0 0 1 9.1 1 21.7 21.7 0 0 1 6.8 2.8 12.9 12.9 0 0 1 4.3 4.4 11.8 11.8 0 0 1 1.5 6 13.8 13.8 0 0 1-.9 4.9 12.2 12.2 0 0 1-3 4.4 23.9 23.9 0 0 1-5.7 4 57.1 57.1 0 0 1-8.9 3.6 83.9 83.9 0 0 0-7.9 3 37.2 37.2 0 0 0-5.7 3.1 17.6 17.6 0 0 0-3.7 3.2 9.4 9.4 0 0 0-1.9 3.3h31v-6.3h8.7V64H26.5zm2.2-25.8h9.2q0-5.6 3.3-8.3t10.2-2.7a22.9 22.9 0 0 1 3.8.3 15.6 15.6 0 0 1 3 .8 6.2 6.2 0 0 1 2 1.1 1.8 1.8 0 0 1 .7 1.3L60 26l-2-.6-2.8-.5-3.8-.2a24 24 0 0 0-5.2.5 9.7 9.7 0 0 0-3.7 1.7 7 7 0 0 0-2.3 3 12.5 12.5 0 0 0-.8 4.6v1.2H28.6zm49.5 32.5v-13h1.6v14.5H28.6v-1.5zM41 55.5a4.6 4.6 0 0 1 1.2-1.6 14.6 14.6 0 0 1 2.9-1.9 43.2 43.2 0 0 1 4.7-2.1q2.8-1.1 6.8-2.3 9.9-2.9 14.7-7.8A16 16 0 0 0 76 28.3a12.3 12.3 0 0 0-1.5-5.8 17.3 17.3 0 0 0-4.5-5.3 10.8 10.8 0 0 1 3.3 1.9 12.6 12.6 0 0 1 2.4 2.7 12.2 12.2 0 0 1 1.4 3.2 11.6 11.6 0 0 1 .5 3.2 18.6 18.6 0 0 1-1.2 6.8 16.8 16.8 0 0 1-3.8 5.7 26.6 26.6 0 0 1-6.7 4.8 55.5 55.5 0 0 1-9.8 3.8L51 51l-3.8 1.5-2.6 1.5a6.8 6.8 0 0 0-1.6 1.5z"/>
    </g>
    <g id="check-mark">
      <circle cx="138.1" cy="130.1" r="39" fill="#a7afb8" transform="rotate(-5 137.749 129.93)"/>
      <polygon fill="#323941" points="125.3 113 113.6 125.4 138.1 150.8 186.9 108.7 169.4 93.4 139.8 130.2 125.3 113"/>
    </g>
  </g>
</svg>
