<svg id="step-1" width="336" height="336" viewBox="0 0 252 252">
  <g id="background">
    <circle cx="126.5" cy="127.6" r="114.6" fill="#a7afb8"/>
    <path fill="#969ca2" d="M125.5 13a114.6 114.6 0 0 0 0 229.2h1.3V13z"/>
    <path fill="#abc6d7" d="M206 122.2l-.6-2.9-22.4 43.1-18 34.4s14.8 9.8 2.9 22.8a35.2 35.2 0 0 0 12.9-7.4 105.5 105.5 0 0 0 25.2-90z"/>
    <path fill="#a7afb8" d="M167.2 167l-.5-.4-44.6-12.4-3.8-1.4-86 16.1L74 196.6v4.9l92.3-29.1.3-.4c2-2.9 1.3-4.4.6-5z"/>
    <path fill="#18191b" d="M26 99.7l84.1-1.4a3.7 3.7 0 0 1 3.7 3.3l5.8 49a3.7 3.7 0 0 1-3 4.1l-81.4 15.9a3.7 3.7 0 0 1-4.4-3.2L22.3 104a3.7 3.7 0 0 1 3.7-4.3z"/>
    <path fill="#fff" stroke="#231f20" stroke-miterlimit="10" d="M32.8 104.5l70.9-2a6.2 6.2 0 0 1 6.3 5.3l5.1 36.7a6.2 6.2 0 0 1-5 6.9L40.5 164a6.2 6.2 0 0 1-7.2-5.2l-6.4-47.2a6.2 6.2 0 0 1 5.9-7.1z"/>
    <path fill="#323941" d="M136.5 163.1c-3.5-.5-6.6-2.5-10.3-2.1-.9.1-.7-1-1.3-1.2-2.9-.4-5.4 1.7-8.3 1.7s-3.2-.1-4.1 1.6-.7.3-1 .2c-4-2.5-38.4 6.8-39.3 7.1H72c-22.1 2.6-23.6 5.9-23.6 5.9l9.3 5.3a14.4 14.4 0 0 1 2.6 1.5 3.5 3.5 0 0 0 3.9.5l49-11.8c2.2-1.6 4.9-1.4 7.4-2 .8-.2 1.7-.3 1.6-1.5a1.6 1.6 0 0 0-1.4-1.7 43.2 43.2 0 0 1-4.2-1.5v-.5l2.6-.2c.9-.5 1.1.1 1.3.8a6.6 6.6 0 0 0 3.4.9c.5.1 1.1 0 1.5.5h.3c.5 0 1-.1 1.3.5 4.4.6 8.3-1.1 12.3-2.7 0 0 0-.2.1-.4z"/>
    <polygon fill="#89909b" points="55.7 104 32.9 104.7 40.4 163.9 62.7 159.9 55.7 104"/>
    <polygon fill="#6b7580" points="55.4 104 62.6 159.8 85.5 155.8 78.7 103.4 55.4 104"/>
    <path fill="#89909b" d="M101.7 102.7l-22.9.7 6.6 52.4 22.5-4.1-6.1-49z"/>
    <polygon fill="none" points="63.7 136.7 63.7 136.7 63.7 136.7 63.7 136.7"/>
    <path fill="#a7afb8" d="M79.5 126.3a8.9 8.9 0 1 0-15.3 8 6.2 6.2 0 0 1 3.2-3.5l-.3-.6a4.6 4.6 0 0 1-.5-2.6v-.6l-2.1.7c-.2.1-.4-.1-.3-.4s2.3-5.5 4.4-4.6a5 5 0 0 1 3.3-.5 5.5 5.5 0 0 1 2.1.8l.6.5c1.3-.3 2 .9 2.5 2.3a15.9 15.9 0 0 1 .7 3.2c0 .3-.2.5-.4.3l-2-1.3-.2.5a10.1 10.1 0 0 1-.5 1.8 4.5 4.5 0 0 1-.8 1.2l-.4 1.1c0 .3 0 2.3-.1 4.1a9 9 0 0 0 6.1-10.4z"/>
    <path fill="#373f4b" d="M66 135.8a8.9 8.9 0 0 0 3.6 1.3l-.3-.6a2.2 2.2 0 0 1-.1-1.1 5.4 5.4 0 0 1 .2-1.1v-.3a1.2 1.2 0 0 1-.5-.5l-1.1-2-.2-.2-.4-.5s1.2 3.2-1.2 5z"/>
    <path fill="#373f4b" d="M73.9 131.6l-.4.3-.6.6a1.7 1.7 0 0 1 .1.5 34.8 34.8 0 0 1-.3 3.9l.6-.2c.1-1.7.1-3.7.1-4.1z"/>
    <path fill="#545b64" d="M70.4 134.2h-.7v.4a5.4 5.4 0 0 0-.2 1.1 2.2 2.2 0 0 0 .1 1.1l.3.6h2l1.1-.2a34.8 34.8 0 0 0 0-4.2 1.7 1.7 0 0 0-.1-.5l-1.4 1.4a1.2 1.2 0 0 1-1.1.3z"/>
    <path fill="#a56c40" d="M72.9 132h-.5a1.5 1.5 0 0 1 .4.5l.6-.6h-.6z"/>
    <path fill="#a56c40" d="M70.7 132.6a3.8 3.8 0 0 1 1.4-.7h.1l-.4-.4a7.2 7.2 0 0 1-.9-.9h-.2l-.4 1.8z"/>
    <path fill="#a56c40" d="M72.4 131.9h-.3a3.8 3.8 0 0 0-1.4.7l.6.4c.1.1-.7.6-1 .7h-.2v.4h.4a1.2 1.2 0 0 0 1-.3l1.4-1.4a1.5 1.5 0 0 0-.4-.5z"/>
    <path fill="#8d5d3a" d="M69.4 132.6a.1.1 0 0 1 .1-.2h.8l.4-1.8-1 .4c-.3.1-1.4.7-1.8.5l1.1 2a1.2 1.2 0 0 0 .5.5l.3-.5z"/>
    <path fill="#8d5d3a" d="M70.1 133.7v-.2l-.3.5h.2z"/>
    <path fill="#231c15" d="M70.2 133.1l.5-.5h-.4z"/>
    <path fill="#231c15" d="M70.1 133.7h.2c.3-.2 1.2-.6 1-.7l-.6-.4-.5.5zm.7-.7c-.3.2-.4-.1-.4-.1l.4.1z"/>
    <path fill="#231c15" d="M70.2 133.1v-.6h-.8a.1.1 0 0 0-.1.2l.6.9z"/>
    <path fill="#231c15" d="M69.9 133.4v.2-.6z"/>
    <path fill="#fff" d="M70.8 133s-.2-.3-.4-.1.1.4.4.1z"/>
    <path fill="#373f4b" d="M72.6 131l1.6-.2-.3.9a4.5 4.5 0 0 0 .8-1.2 10.1 10.1 0 0 0 .5-1.8l.2-.5-.7-.4a1.1 1.1 0 0 1-.5-1l.2-2v-1.1h.1l-.5-.7a5.5 5.5 0 0 0-2.1-.8l-.9 7zm1-2.8s.2 1.6-1.3.9c1.2.5 1.1-.8 1-.8s-.5-.3-.7-.2.5-.2 1 .1z"/>
    <path fill="#373f4b" d="M72.6 131l.8.9.4-.3.3-.9z"/>
    <path fill="#373f4b" d="M72.5 131h.2l-1.7-1.8v.7a3.2 3.2 0 0 1 1.5 1.1z"/>
    <path fill="#373f4b" d="M72.5 131a3.2 3.2 0 0 0-1.6-1.1l-.2.7h.2a7.2 7.2 0 0 0 .9.9l.4.4h1.2l-.8-.9z"/>
    <polygon fill="#373f4b" points="70.9 129.9 71 129.2 70.9 129.9 70.9 129.9"/>
    <polygon fill="#373f4b" points="70.7 130.6 70.7 130.6 70.9 129.9 70.9 129.9 70.7 130.6"/>
    <path fill="#2a3039" d="M70.2 129.8l.8-.6.9-7a5 5 0 0 0-3.3.5h.1l-.4 3a1.1 1.1 0 0 1-.7.9l-.9.3v.6a4.6 4.6 0 0 0 .5 2.6l.3.6a4.8 4.8 0 0 1 2.7-.9zm-.8-2.8c.5.1.7.4.7.6l-.5-.3s-.8.6-.2 1.1c-1.2-.6 0-1.5 0-1.4z"/>
    <path fill="#2a3039" d="M68 131.5l2.2-1.7a4.8 4.8 0 0 0-2.8 1l.4.5z"/>
    <path fill="#2a3039" d="M71 129.2l-.8.6h.6z"/>
    <path fill="#2a3039" d="M69.7 131l1-.4.2-.7h-.6l-2.3 1.6c.3.2 1.4-.4 1.7-.5z"/>
    <path fill="#3b424f" d="M67.1 124.6a2.5 2.5 0 0 1 .6-1.1 3.6 3.6 0 0 1 1-.8c-2.1-.9-3.8 3-4.4 4.6s.1.5.3.4l2.1-.7.2-1c.1-.5.1-.9.2-1.4z"/>
    <path fill="#3b424f" d="M68.4 125.8l.4-3h-.1a3.6 3.6 0 0 0-1 .8 2.5 2.5 0 0 0-.6 1.1c-.1.5-.1.9-.2 1.4l-.2 1 .9-.3a1.1 1.1 0 0 0 .8-1z"/>
    <path fill="#fff" d="M69.4 128.5c-.6-.5.2-1.1.2-1.1l.5.3c0-.3-.2-.5-.7-.6s-1.2.7 0 1.4z"/>
    <path fill="#fff" d="M73.3 128.3s.1 1.3-1 .8c1.5.6 1.3-.9 1.3-.9s-.8-.3-1-.1.4 0 .7.2z"/>
    <path fill="#2a3039" d="M65.6 132.4a11.3 11.3 0 0 1 1.8-1.5 6.2 6.2 0 0 0-3.2 3.5h.1a14.2 14.2 0 0 1 1.3-2z"/>
    <path fill="#2a3039" d="M65.6 132.4a14.2 14.2 0 0 0-1.3 2.1 9 9 0 0 0 1.6 1.3c2.4-1.7 1.4-5 1.4-5a11.3 11.3 0 0 0-1.8 1.5z"/>
    <path fill="#3b424f" d="M75.8 125.9a3.5 3.5 0 0 1 0 .4 6 6 0 0 1-.4 1.8l2 1.3c.2.1.4 0 .4-.3a15.9 15.9 0 0 0-.7-3.2h-1.3z"/>
    <path fill="#3b424f" d="M75.8 125.9a2 2 0 0 1-1.3-1.3l-.2 2a1.1 1.1 0 0 0 .5 1l.7.4a6 6 0 0 0 .4-1.8 3.5 3.5 0 0 0-.1-.3z"/>
    <path fill="#2a3039" d="M75.8 125.9h1.4c-.5-1.4-1.2-2.6-2.5-2.3a4 4 0 0 1 1.1 2.3z"/>
    <path fill="#2a3039" d="M74.5 124.6a2 2 0 0 0 1.3 1.3 4 4 0 0 0-1.1-2.4h-.1z"/>
    <path fill="#a7afb8" d="M55.6 129.4a8.9 8.9 0 1 0-14.6 7 12.9 12.9 0 0 1 2-2.3l1.1-.7-.5-1a3.4 3.4 0 0 0-.6-.9c-1.4.3-2.2-.7-2.8-2a12 12 0 0 1-.8-2.9.4.4 0 0 1 .1-.3h.5l3.6 1h.5a2.6 2.6 0 0 1 1.2-1l.7 1.6-.7-1.6a8.4 8.4 0 0 1 2.1-.7l1.2-3.7a.6.6 0 0 1 1-.2l.8.8a7.3 7.3 0 0 1 1.5 2.4 2.2 2.2 0 0 1-.8 2.6c.2.9.7 1.7 1.1 2.6a4.6 4.6 0 0 1 .1 2.7 10.2 10.2 0 0 1-.5 1.2v.2l-1.1 1.8-.3 1.4a9 9 0 0 0 5.2-8z"/>
    <path fill="#2d2927" d="M51.8 134.4h-1.2l-1.5-.2h-.3l-.4.5-.6.8-.2.2-.5.2h-.9A13.5 13.5 0 0 0 44 138a8.9 8.9 0 0 0 2.8.4h.9a7.5 7.5 0 0 1 .8-1.3 7.1 7.1 0 0 1 .2 1.1l1.7-.6.3-1.4z"/>
    <path fill="#393130" d="M46.2 135.8h-.1a4.6 4.6 0 0 1-1-1 6.1 6.1 0 0 1-.8-1.3l-1.1.7a12.9 12.9 0 0 0-2 2.3A8.9 8.9 0 0 0 44 138a13.5 13.5 0 0 1 2.2-2.2z"/>
    <path fill="#3e3736" d="M46 132.7a3.5 3.5 0 0 1 .7-1.2h.1a.9.9 0 0 0-.2-.7h-.3l-.4-.2a4.4 4.4 0 0 1-1.2-1l.9-.2h.1l-.8-.4 1.2-.6h.1l-.7-1.6a2.6 2.6 0 0 0-1.2 1h-.5l-3.6-1h-.5a.4.4 0 0 0-.1.3 12 12 0 0 0 .8 2.9c.6 1.2 1.4 2.2 2.8 2a3.4 3.4 0 0 1 .6.9l.5 1 1.4-.6zm-2.5-1.9c-2.2 1-2.9-2.2-3.1-3.4a.3.3 0 0 1 .4-.3l3.1.9zm2.2 1c-.2 1.6-1.5.7-1.4.7s.2-.8.4-.9-.3.3-.2.7 1 .7 1.2-.5z"/>
    <path fill="#3e3736" d="M48.7 134.3l-.2.4.4-.5z"/>
    <path fill="#3e3736" d="M46.5 135.9h.7l.5-.2.2-.2-.4.3a1.4 1.4 0 0 1-1 .1z"/>
    <path fill="#3e3736" d="M46.1 135.7l-.4-.4a1.9 1.9 0 0 1-.1-1.1 6.5 6.5 0 0 1 .3-1.3h-.2l-1.4.6a6.1 6.1 0 0 0 .8 1.3 4.6 4.6 0 0 0 1 .9z"/>
    <path fill="#2d2927" d="M47.3 128.3c0 .1 0 .1.1.2h.1l.7-.6a12.1 12.1 0 0 1-.1 1.9 1.1 1.1 0 0 0 0 .6c.2.3.5.4.9.4a4.4 4.4 0 0 1 2 .6 2.6 2.6 0 0 1 1 2.5.9.9 0 0 1-.2.5h.1v-.2a10.2 10.2 0 0 0 .5-1.2 4.6 4.6 0 0 0-.1-2.7c-.3-.9-.8-1.7-1.1-2.6a2.2 2.2 0 0 0 .8-2.6 7.3 7.3 0 0 0-1.5-2.4l-.8-.8a.6.6 0 0 0-1 .2l-1.2 3.7a8.4 8.4 0 0 0-2.1.7l.7 1.6 1.3-.6a3.7 3.7 0 0 0-.1.8zm2.2 2c.8.2.8-.8.7-.8l-.5-.3c.2-.2.5-.2.9.2s.1 1.4-1.2.9zm-.1-7.7a.3.3 0 0 1 .5-.1c.9.8 3.1 3.2 1.1 4.5l-2.5-1.3z"/>
    <path fill="#fff" d="M50.6 129.4c-.4-.4-.7-.3-.9-.2l.5.3s0 1-.7.8c1.2.5 1.2-.9 1.1-.9z"/>
    <path fill="#fff" d="M44.5 132.2c-.1-.4 0-.6.2-.7s-.5.3-.4.9 1.3.9 1.4-.7c-.2 1.3-1.3.6-1.2.5z"/>
    <path fill="#fff" d="M49.8 122.4a.3.3 0 0 0-.5.1l-1 3 2.5 1.3c2.1-1.2-.1-3.5-1-4.4z"/>
    <path fill="#fff" d="M40.4 127.4c.2 1.2.9 4.3 3.1 3.4l.3-2.8-3.1-.9a.3.3 0 0 0-.3.3z"/>
    <path fill="#e9e4e3" d="M48.5 137a7.5 7.5 0 0 0-.8 1.3l1-.2a7.1 7.1 0 0 0-.2-1.1z"/>
    <polygon fill="#fff" points="47.8 131.8 47.8 131.8 46.2 128 46.3 128.2 47.8 131.8"/>
    <polygon fill="#fff" points="50.1 134.3 50.1 134.3 50.1 134.3 50.1 134.3"/>
    <polygon fill="#fff" points="46.2 128 46.2 128 46.2 128 46.2 128 46.2 128"/>
    <polygon fill="#fff" points="48.4 133.1 48.8 134.1 48.8 134.1 48.4 133.1 48.4 133.1"/>
    <path fill="#fff" d="M50.1 134.3l-1.2-.2h.3l1.5.2h-.5z"/>
    <polygon fill="#fff" points="48.8 134.1 48.8 134.1 48.8 134.1 48.8 134.1 48.8 134.1 48.8 134.1 48.8 134.1"/>
    <path fill="#fff" d="M46.3 128.2l1.5 3.6z"/>
    <path fill="#fff" d="M48.4 133.1l.4 1z"/>
    <path fill="#fff" d="M46.2 128l1.6 3.7 1-.4a.1.1 0 0 1 .1.2.1.1 0 0 1 .1.2l-.4 1a3.2 3.2 0 0 1 1.4 1.5h1.7a.9.9 0 0 0 .2-.5 2.6 2.6 0 0 0-1-2.5 4.4 4.4 0 0 0-2-.6c-.3 0-.7-.1-.9-.4a1.1 1.1 0 0 1 0-.6 12.1 12.1 0 0 0 .1-1.9l-.7.6h-.1c-.1 0-.1-.1-.1-.2a3.7 3.7 0 0 1 .2-.9l-1.3.6z"/>
    <path fill="#fff" d="M48.4 133.1l.4 1 1.2.2a3.2 3.2 0 0 0-1.4-1.5v.2z"/>
    <polygon fill="#fff" points="47.9 132 47.9 132 47.8 131.8 47.8 131.8 47.9 132"/>
    <path fill="#fff" d="M47.9 132v-.2.2z"/>
    <path fill="#fff" d="M48.9 131.6h.1a.1.1 0 0 0-.1-.2l-1 .4v.2z"/>
    <polygon fill="#e9e4e3" points="46.2 128 46.2 128 46.2 128 46.3 128.2 46.2 128"/>
    <path fill="#e9e4e3" d="M47.8 135.5l.6-.8-.3.4z"/>
    <path fill="#e9e4e3" d="M47.3 132.5h-.1l.6-.6-1.5-3.6h-.2l-1.2.6.8.4h-.1l-.9.2a4.4 4.4 0 0 0 1.2 1l.4.2h.3a.9.9 0 0 1 .2.7h-.1a3.5 3.5 0 0 0-.7 1.2z"/>
    <path fill="#e9e4e3" d="M48.4 133.1c-.4-.1-1.2-.4-1.1-.5h.1l-1.3.2H46l2.9 1.2z"/>
    <path fill="#e9e4e3" d="M48.8 134.1a19.6 19.6 0 0 0-2.6 1.7h.3a1.4 1.4 0 0 0 1-.1l.4-.3.3-.4.3-.4.2-.4v-.2z"/>
    <path fill="#e9e4e3" d="M48.8 134.1l-2.9-1.2a6.5 6.5 0 0 0-.3 1.3 1.9 1.9 0 0 0 .1 1.1l.4.4h.1a19.6 19.6 0 0 1 2.6-1.6z"/>
    <polygon fill="#e9e4e3" points="46.2 128 46.2 128 46.2 128 46.2 128"/>
    <path fill="#e9e4e3" d="M47.9 132v-.2l-.6.6h.1z"/>
    <polygon fill="#231c15" points="48.4 133.1 48.4 133.1 48.3 132.9 48.3 132.9 48.4 133.1"/>
    <path fill="#231c15" d="M48.3 132.9v.2z"/>
    <path fill="#231c15" d="M48.7 132.8l.4-1a.1.1 0 0 0-.1-.2l-.4 1.1z"/>
    <path fill="#231c15" d="M48.5 132.8h-.2v.2h.2v-.2h-.1z"/>
    <polygon fill="#231c15" points="48.2 132.6 48.2 132.6 48 132.2 48 132.2 48.2 132.6"/>
    <polygon fill="#231c15" points="48 132.1 47.9 132 47.9 132 48 132.1 48 132.1"/>
    <polygon fill="#231c15" points="48.3 132.9 48.3 132.9 48.2 132.6 48.2 132.6 48.3 132.9"/>
    <path fill="#231c15" d="M48.2 132.6l-.2-.4z"/>
    <path fill="#231c15" d="M48.2 132.6v.2-.2z"/>
    <path fill="#231c15" d="M48.9 131.6l-.9.3.2.4h.3l.4-1.1z"/>
    <path fill="#231c15" d="M48.4 132.9h-.2v.2z"/>
    <polygon fill="#231c15" points="48 132.2 48 132.2 48 132.1 48 132.1 48 132.2"/>
    <polygon fill="#231c15" points="47.3 132.5 47.3 132.5 47.3 132.5 47.3 132.5"/>
    <path fill="#231c15" d="M47.3 132.5h-.1c-.1.1.8.4 1.1.5v-.2z"/>
    <path fill="#231c15" d="M48 132.3h.1a.3.3 0 0 1-.1.2h.2l-.2-.4z"/>
    <path fill="#231c15" d="M47.7 132.5h-.1s.1-.3.3-.2l-.6.5h.4z"/>
    <path fill="#231c15" d="M48 132.6h-.7l1 .3v-.2z"/>
    <path fill="#231c15" d="M48 132.3c-.2-.1-.3.2-.3.2h.3z"/>
    <path fill="#fff" d="M48.1 132.4H48a.3.3 0 0 0 .1 0z"/>
    <path fill="#a7afb8" d="M88.2 131.6a12.1 12.1 0 0 1 .4-2h-.5v-.2a2.1 2.1 0 0 1-.1-.7l-.2-.7a4.6 4.6 0 0 1 .1-2.7l.7-1.5.2-.5c-.7-1.2.8-3.7 1.6-4.9s.5-.3.6 0l.4 2.4a5.5 5.5 0 0 1 4.8 1.6l.4.4 2.6-1.9c.2-.1.3 0 .3.3s-.9 4.4-2.2 4.9a9.3 9.3 0 0 1-1 2l-.4.8.2.2.4.5a13.1 13.1 0 0 1 2.2 3.8 8.9 8.9 0 1 0-9.8.5l-.4-2.1a.4.4 0 0 1-.3-.2zm9.2-2.6z"/>
    <path fill="#835235" d="M90.2 118.9c.1-.2.3-.1.3 0l.3 2h.4l-.4-2.4c0-.3-.4-.3-.6 0s-2.4 3.7-1.6 4.9l.2-.7c-.4-1.1.8-3 1.4-3.8z"/>
    <path fill="#fff" d="M90.2 118.9c-.5.8-1.8 2.7-1.3 3.6a2.5 2.5 0 0 1 .8-1l1.1-.6-.3-2c-.1-.1-.2-.1-.3 0z"/>
    <path fill="#835235" d="M98.3 121.8c.1-.1.2 0 .2.2s-.6 3.1-1.5 3.5v.4c1.3-.5 2-3.6 2.2-4.9s-.1-.4-.3-.3l-2.6 1.9.2.4z"/>
    <path fill="#945f3b" d="M94.2 135a21.9 21.9 0 0 1 1.9-5.4l-.4-.5-.2-.2-.5.9a3.2 3.2 0 0 1-1.6 1.2 1.2 1.2 0 0 1-.9.1l-.5-.2-.5-.5a7.1 7.1 0 0 1-.7-1h-2.1a12.1 12.1 0 0 0-.4 2 .4.4 0 0 0 0 .1l.4 2.1a8.9 8.9 0 0 0 4.5 1.2z"/>
    <path fill="#fff" d="M98.5 122c0-.2-.1-.3-.2-.2l-1.8 1.3a4 4 0 0 1 .5 2.3c.9-.3 1.4-2.5 1.5-3.4z"/>
    <path fill="#a76d45" d="M96.9 126.1h-.6v-3.2h.1l-.4-.4a5.5 5.5 0 0 0-4.8-1.6v.6l-2.3 2.2-.4-.4-.2.5-.7 1.5a4.6 4.6 0 0 0-.1 2.7l.2.7a2 2 0 0 1 1.7-2 1.4 1.4 0 1 1 1.8-2v-.8c0-.3.7 1 .7-.4l1 .5 1.4.7c-.9.4.4.6.1.8l-.2.2a1.4 1.4 0 0 1 .2 2.5l1 .8.4-.8a9.3 9.3 0 0 0 1.1-2.1z"/>
    <path fill="#a76d45" d="M88.9 123.6l2.3-2.2v-.6h-.4v.4l-1.7 1.6-.3-.3-.2.7z"/>
    <path fill="#a76d45" d="M88.8 122.5l.3.3 1.7-1.6v-.4l-1.1.6a2.5 2.5 0 0 0-.9 1.1z"/>
    <path fill="#a76d45" d="M96.3 126.1h.7v-.4h-.5v-2.3h.1l-.2-.4h-.1z"/>
    <path fill="#a76d45" d="M94 128.2h-.5c.4.9.8 2 .4 2.6l-.4.2a3.2 3.2 0 0 0 1.6-1.2l.5-.9-1-.8z"/>
    <path fill="#a76d45" d="M96.5 123.2h-.1v2.3h.6a4 4 0 0 0-.5-2.3z"/>
    <path fill="#482f21" d="M91.2 126.1a2.5 2.5 0 0 1 .2-.7v-.8a1.4 1.4 0 1 0-1.8 2l1.4-.2zm-.8-1s-.8.6-.2 1.1c-1.1-.7 0-1.5 0-1.5s.7.4.7.7z"/>
    <path fill="#835235" d="M94.2 135a8.9 8.9 0 0 0 4.1-1.6 13.1 13.1 0 0 0-2.2-3.8 21.9 21.9 0 0 0-1.9 5.4z"/>
    <path fill="#482f21" d="M92.9 127l.2.3h.1l.7.3c.7-.1.5-1 .5-1a.7.7 0 0 0-.7-.1c.2-.2.5-.4 1-.1s.3 1.1-.6 1.2l.7.4a1.4 1.4 0 0 0-.2-2.5l-1.1.9z"/>
    <path fill="#482f21" d="M93.4 127.6h.4l-.7-.3H93l.4.8h1.1l-.7-.4z"/>
    <path fill="#fff" d="M90.2 124.7s-1.2.8 0 1.5c-.6-.5.2-1.1.2-1.1l.5.3c0-.3-.1-.6-.7-.7z"/>
    <path fill="#fae4d7" d="M92.9 130.9l-.5-.2-.5-.5a7.2 7.2 0 0 1-.7-1.1H91v.2a7.1 7.1 0 0 0 .7 1l.5.5.5.2a1.2 1.2 0 0 0 .9-.1z"/>
    <path fill="#fae4d7" d="M91.8 127.1h.9a1.4 1.4 0 0 1 1.3-1.7h.4l.2-.2c.3-.2-1-.3-.1-.8l-1.4-.7z"/>
    <path fill="#fae4d7" d="M93.4 128.1a1.4 1.4 0 0 1-.8-.9h-.9a2.2 2.2 0 0 1 .8.7c.1.1-.8.4-1.2.5h-.1l-.3.7h.2a7.2 7.2 0 0 0 .7 1.1l.5.5.5.2h.5l.4-.2c.5-.6.1-1.7-.3-2.6z"/>
    <path fill="#fae4d7" d="M92.6 126.8a1.4 1.4 0 0 0 .1.4h.3l-.2-.3.4-.5 1.1-.9H94a1.4 1.4 0 0 0-1.4 1.3z"/>
    <path fill="#fae4d7" d="M92.7 127.2a1.4 1.4 0 0 0 .8.9l-.4-.8z"/>
    <path fill="#e9cfc2" d="M88.2 129.4v-.2l-.2-.5a2.1 2.1 0 0 0 .1.7v.2h.5v-.2z"/>
    <path fill="#e9cfc2" d="M90.1 129.3l-1.3.2v.2h2.3v-.2z"/>
    <path fill="#e9cfc2" d="M88.2 129.4h.5a3.5 3.5 0 0 1 2.1-2.5h1l1.2-3.2-1-.5c.1 1.4-.7.1-.7.4v.8a1.4 1.4 0 0 1-1.1 2.2l-.8-.2a2 2 0 0 0-1.7 2l.2.5z"/>
    <path fill="#e9cfc2" d="M91.2 128.3l-.4-1.2a.1.1 0 0 1 0-.1 3.5 3.5 0 0 0-2.1 2.5l1.3-.2 1-.2.3-.7z"/>
    <path fill="#e9cfc2" d="M91.8 127.2h-.4z"/>
    <path fill="#e9cfc2" d="M91.7 125.5a1.4 1.4 0 0 0-.3-.8v.8a2.5 2.5 0 0 0-.2.7l-.3.3-1.4.2.8.2a1.4 1.4 0 0 0 1.4-1.4z"/>
    <path fill="#fff" d="M94.5 126.5c-.5-.3-.8-.2-1 .1a.7.7 0 0 1 .7.1s.2.9-.5 1h.1c1.1-.1.8-1.2.7-1.2z"/>
    <path fill="#231c15" d="M91.4 128.4c.3-.1 1.3-.4 1.2-.5a2.2 2.2 0 0 0-.8-.7l-.5 1.2zm.3-.7c.2-.2.3.1.3.1-.3.2-.3-.1-.3-.1z"/>
    <path fill="#231c15" d="M90.9 127h-.1a.1.1 0 0 0 0 .1l.4 1.2h.1l.5-1.2-.4-.2z"/>
    <path fill="#fff" d="M92.1 127.9s-.1-.4-.3-.1-.1.2.3.1z"/>
    <polygon fill="#231f20" points="56.2 141.9 41.6 143.3 41.5 142.6 56.1 141.1 56.2 141.9"/>
    <polygon fill="#231f20" points="56.4 144.3 41.8 145.7 41.7 144.9 56.3 143.5 56.4 144.3"/>
    <polygon fill="#231f20" points="56.8 146.6 42.2 148.1 42.1 147.3 56.7 145.9 56.8 146.6"/>
    <polygon fill="#231f20" points="78.8 139.5 64.2 141 64.1 140.2 78.7 138.7 78.8 139.5"/>
    <polygon fill="#231f20" points="79 141.9 64.4 143.3 64.3 142.6 78.9 141.1 79 141.9"/>
    <polygon fill="#231f20" points="79.4 144.3 64.8 145.7 64.7 144.9 79.3 143.5 79.4 144.3"/>
    <polygon fill="#231f20" points="101.4 137.2 86.8 138.6 86.7 137.8 101.3 136.4 101.4 137.2"/>
    <polygon fill="#231f20" points="101.6 139.5 87 141 87 140.2 101.6 138.7 101.6 139.5"/>
    <polygon fill="#231f20" points="102 141.9 87.4 143.3 87.3 142.6 101.9 141.1 102 141.9"/>
    <path fill="#fff" d="M28.7 57.8H41V25.9l-10.8 2.9v-8l19.2-5.1v42.1h10.5V64H28.7zm34 8.9V60h1.6v8.2H31v-1.5zM32.5 30.9l6.9-1.8v1.5l-6.9 1.8zM52.2 18l1.6-.4v37.9h-1.6z"/>
  </g>
  <g id="arm">
    <path fill="#deb39a" d="M173.1 182.1l-21.5-13.3.3-1.5c-6.4 14.7-14.6 32.9-14.6 32.9l-24.9-15.5-17.1-8.8-9.1-1.9s-2.4-.5-2.7 1.8h-3.9s-4.1 2.3-4.6 6.2a20 20 0 0 0 .4 3.1l-.4 3.2 5.5-1.6s18.7 11.2 24.7 9.8c0-.3 35.8 28.3 35.8 28.3s5.7 3.8 9.5 0c.1-.1 11.9-22.1 22.8-42.5z"/>
    <path fill="#c3d9e8" d="M173.1 182.1l18.4-34.6s1.2-16.2-7.5-26.3l-7.8-3.8c-4 2.5-12.9 10.2-16.7 31.4.1.5-3.4 8.7-7.6 18.4l-.3 1.5z"/>
  </g>
  <g id="head">
    <path fill="#deb39a" d="M151.5 48.1c-2.9 5.1-8.6 17.4-2.9 28.2a2 2 0 0 1 .1 1.5c-.6 1.9-2.4 5.9-3.4 8.2a2 2 0 0 0 .8 2.6 11.6 11.6 0 0 0 3.4 1.2 2 2 0 0 1 1.6 1.6l.3 1.4a2 2 0 0 0 1.6 1.6c1.7.3 4.7.7 6-.3a30.9 30.9 0 0 0-2.7 2.1 2 2 0 0 0-.2 3c.4.4.8.8.4 1.3s-.4.3-.5.7a5 5 0 0 0 3.3 6.3 2 2 0 0 0 1.5-.2c2.5-1.5 13.6-5.9 17.4 9.1.5.7 1.8-21.6 2.1-26.8a2 2 0 0 1 .9-1.5c3-1.9 12.4-9 .8-15.3.8.2-1.8 0-3.3 1.8a1.9 1.9 0 0 1-3.1.1c-4.9-6.4-16.5-21.2-20.9-26.8a2 2 0 0 0-3.2.2z"/>
    <path fill="#f0f3f9" d="M152.9 80a11.5 11.5 0 0 1 3.8-1.7l-5.9-2.2a3.4 3.4 0 0 1 2.1 3.9z"/>
    <path fill="#3f292c" d="M152.9 80a3.4 3.4 0 0 0-2.1-3.8 24.1 24.1 0 0 0 1.7 4.6 1.3 1.3 0 0 1 .4-.8z"/>
    <path fill="#10253f" d="M156.7 78.4l-5.9-2.2s-1.7 0-1.5-.7 7.4 2.9 7.4 2.9z"/>
    <path fill="#323941" d="M207.4 81.3c1.4-11.1-.4-22.2-8-31.5a24.6 24.6 0 0 0-2.5-2.7s-23.3-24.1-44 0c.5-1 11.4 38 19 65.4 0 0-8.6 58.4 28.4 54.4 0 0 14.2-2 15.4-3.4-11.4 3.2-8.3-82.2-8.3-82.2z"/>
  </g>
</svg>
