<svg width="336" height="336" viewBox="0 0 252 252">
  <g id="step-4">
    <g id="background">
      <circle cx="124.1" cy="126.3" r="114.6" fill="#a7afb8"/>
      <path fill="#969ca2" d="M123.2 11.7a114.6 114.6 0 0 0 0 229.2h1.3V11.7z"/>
      <path fill="#945f3b" d="M79.8 143.9l.3-.3c1-.8 9-8.4 18.6-12.4l16-1.7c8.1 2.4 15.3 11.2 18.5 32.3a3 3 0 0 1 0 .9c-.8 5-8.1 49.2-12.8 58.2a1.5 1.5 0 0 1-2.9 0c-1.8-3.2-3.6-10.7-4.8-16.7-.5-2.2-2.9-2.2-3.4 0l-3.4 16.6c-.3 1.4-1.4 2.1-2.4 1.5s-3.5-4.9-4.4-7.7a113.6 113.6 0 0 1-4.3-19.5c-.2-1.2-1.2-1.8-2-1.2-5.3-24-10.9-38.3-15.7-46.8z"/>
      <path fill="#835235" d="M59.9 179.5c2.1-9.1 7.3-19.8 17.1-32.2 4.8 8.5 10.4 22.8 15.7 46.8h-.1c-5.6 5.4-13.6 13.3-13.1 23.6.1 1.8-.7 4-2.4 2.9-5.9-3.7-16.8-12.6-18.3-27.9-.1.5-.1.8-.2.8-15.7-19.7 1.3-14 1.3-14z"/>
      <path fill="#abc6d7" d="M192.2 100.3l-22.8 43.6-18 34.1s14.7 9.7 2.9 22.5c42.1-13 37.9-100.2 37.9-100.2z"/>
      <path fill="#deb39a" d="M159.6 163.4l-21.4-13.2.3-1.5c-6.4 14.6-14.6 32.5-14.6 32.5l-24.8-15.3-17-8.7-9-1.9s-2.4-.5-2.7 1.8h-3.9s-4.1 2.3-4.6 6.2a19.7 19.7 0 0 0 .4 3l-.4 3.2 5.5-1.6S86 179 92 177.6c0-.3 35.6 28.1 35.6 28.1s5.7 3.8 9.4 0c.1-.1 11.8-21.9 22.7-42.1z"/>
      <path fill="#c3d9e8" d="M159.6 163.4l18.3-34.2s1.2-16-7.5-26l-7.8-3.7c-4 2.5-12.9 10.1-16.6 31.1.1.5-3.4 8.6-7.6 18.2l-.3 1.5z"/>
      <path fill="#fff" d="M13.8 40.9l32.3-26.6h11v26.6h15.5v6.2H57.1v9.3h9.7v6.2H34.7v-6.1h13.7v-9.4H13.8zm2.6 8.9h29v1.5h-29zm32-8.9V21.1L24.8 40.9zm-2.7-13.1v1.8L34 38.9h-2.3zm24 37.7v-6.8h1.6v8.2H37v-1.5zm-9.8-49.2h1.6v22.3h-1.6zm0 33.6h15.5v-6.8H77v8.2H61.5v2.8h-1.6z"/>
    </g>
    <g id="dog-head">
      <path fill="#835235" d="M107 87.7l-1-21.6c-.1-2.3 2-2.8 4-.9 8.3 8 25.3 26.3 16.2 34.4z"/>
      <path fill="#fff" d="M110 86.3l-.8-16.7c-.1-1.1 1-1.4 1.9-.5 5.5 5.1 19.6 19.5 12.7 25.8z"/>
      <path fill="#835235" d="M74.7 104.8l-21-9.8c-1.4-.6-2.3.5-1.6 2.2 3.7 9.7 14.8 35.4 26.5 29.8z"/>
      <path fill="#fff" d="M73.7 107.8l-15.2-7.1c-1-.5-1.6.4-1.2 1.6 2.7 7 10.7 25.5 19.1 21.5z"/>
      <path fill="#a76d45" d="M75.9 101c8.4-13.2 27.5-22.3 42.4-14.9a17.5 17.5 0 0 1 6.8 5.6c1.9 2.7 3.2 5.6 5.1 8.2s4.7 6.1 6.7 9.4c3.4 5.6 4.4 11.9 4.2 18.4-.1 3.1-1.1 5.9-1.6 9a4.4 4.4 0 0 1-.5 1.7c-1.5 2.3-10.2 1.7-12.7 1.8l-8.6.4c-.6 3.1-2.4 5.5-3.5 8.4a14.5 14.5 0 0 1-2.5 4.4 9 9 0 0 1-3 2.3c-5.6 2.6-12.1-2.1-16.2-5.5s-5.7-6.6-8.6-10-7.7-8-10.1-13.2c-3.8-8.2-2.8-18.4 2.1-26z"/>
      <circle cx="119.1" cy="114.4" r="9.6" fill="#482f21" transform="rotate(-11.5 119.4 114.346)"/>
      <circle cx="95.7" cy="128.9" r="9.6" fill="#482f21" transform="rotate(-11.5 95.851 129.029)"/>
      <path fill="#fff" d="M120.1 116.1a5.8 5.8 0 0 0 3.8-1.5c-.3 1.9-1.7 3.6-5.5 4-.1.2-7.6-6.5 1-10.3-4.6 3.3.6 8 .7 7.8z"/>
      <path fill="#fae4d7" d="M89.3 114.1l8.8-6.5 22.2 34.5c-.6 2.8-2.4 5.1-3.5 7.7a14.5 14.5 0 0 1-2.5 4.1 9.3 9.3 0 0 1-2.8 2.2c-3.1 1.5-6.4.7-9.3-.7-6.2-5.9 1.3-27.1 1.3-27.1a17.5 17.5 0 0 1-3.4-3.2l-10.7-5.5c-2-1.1 6.6-3.8-.1-5.5z"/>
      <path fill="#e9cfc2" d="M98.1 107.6l6.5-4.8c1.4 9.5 4.8-.5 5.1 1.9l1.5 11.2a17.3 17.3 0 0 1 2.6 4.3l2.2 1.5c25.5-4.6 25 13.3 24.5 16.1a4.2 4.2 0 0 1-.6 1.6c-1.5 2.1-9.5 1.9-11.7 2.1l-7.9.7-22.2-34.6z"/>
      <path fill="#fff" d="M94.8 126.9c-1.1.8-1.8 2.3-1.4 5-.2.2 7.3 5.1 8.3-3.7.1.1.1.2.1.3-1.1 11.4-10.2 5-10 4.9-.6-4.2 1-5.9 3-6.5z"/>
      <path fill="#231c15" d="M118.2 126.5a.9.9 0 0 0-1.3-1c-2.5 1.1-7.6 3.8-9.9 8.9-.6 1 6.3 1.6 8.8 1.8a.9.9 0 0 0 1-.8z"/>
      <path fill="#fff" d="M110.3 133s.2-2.6 2.1-1.4c.1 0 .6 2.5-2 1.7l-.1-.3z"/>
    </g>
    <g id="girl-head">
      <path fill="#deb39a" d="M116.9 49.3c-.3 5.8.1 19.2 10.1 26.2a1.9 1.9 0 0 1 .8 1.3c.3 1.9.5 6.3.6 8.7a2 2 0 0 0 1.9 1.9 11.6 11.6 0 0 0 3.6-.4 2 2 0 0 1 2.1.7l.9 1.1a2 2 0 0 0 2.1.7c1.7-.5 4.4-1.5 5.2-2.9a30.8 30.8 0 0 0-1.4 3.1 2 2 0 0 0 1.2 2.8c.5.2 1 .3.9.9s-.2.4-.1.8a4.9 4.9 0 0 0 5.7 4.1 2 2 0 0 0 1.3-.9c1.6-2.5 9.4-11.3 19.5.3.8.4-8.1-19.9-10.1-24.6a2 2 0 0 1 .1-1.8c1.8-3.1 6.9-13.5-6.1-13.9.8-.2-1.7.8-2.1 3a1.9 1.9 0 0 1-2.7 1.4l-30.7-14.1a2 2 0 0 0-2.8 1.6z"/>
      <path fill="#f0f3f9" d="M132.4 76.9a11.5 11.5 0 0 1 2.6-3.2l-6.2.7a3.3 3.3 0 0 1 3.6 2.5z"/>
      <path fill="#3f292c" d="M132.4 76.9a3.3 3.3 0 0 0-3.6-2.4 23.8 23.8 0 0 0 3.6 3.3 1.3 1.3 0 0 1 0-.9z"/>
      <path fill="#10253f" d="M135 73.7l-6.2.7s-1.5.8-1.6 0 7.8-.7 7.8-.7z"/>
      <path fill="#2a3039" d="M180.5 54.5c-3.7-10.5-10.3-19.4-21.2-24.2a24.4 24.4 0 0 0-3.5-1.2s-31.4-10.8-39.1 19.8c0-1.2 27.2 28.4 46.1 49.2 0 0 18.5 55.5 49.6 35.3 0 0 11.8-8.1 12.2-9.9-8.7 7.8-44.1-69-44.1-69z"/>
    </g>
  </g>
</svg>
