<svg width="336" height="336" viewBox="0 0 252 252">
  <g id="step-3">
    <g id="background">
      <circle cx="124.9" cy="129.8" r="114.6" fill="#a7afb8"/>
      <path fill="#969ca2" d="M124 15.2a114.6 114.6 0 0 0 0 229.2h1.3V15.2z"/>
      <path fill="#945f3b" d="M149.4 128.6l-.3-.3c-1.2-1-10.9-10.2-22.6-15.1l-19.4-2c-9.9 2.9-18.6 13.6-22.5 39.3a3.7 3.7 0 0 0 0 1.1c1 6.1 9.9 59.9 15.6 70.8a1.9 1.9 0 0 0 3.5 0c2.1-3.9 4.4-13.1 5.9-20.3.6-2.7 3.5-2.7 4.1 0l4.2 20.2c.3 1.7 1.7 2.6 2.9 1.8s4.2-6 5.4-9.4c2.6-7.5 4-15.6 5.2-23.7.2-1.4 1.4-2.2 2.4-1.4 6.5-29.2 13.3-46.6 19.2-57z"/>
      <path fill="#835235" d="M173.7 172c-2.6-11.1-8.9-24.1-20.9-39.1-5.9 10.4-12.7 27.7-19.2 57h.1c6.8 6.6 16.6 16.2 15.9 28.8-.1 2.2.9 4.9 2.9 3.6 7.2-4.5 20.4-15.3 22.3-33.9.1.7.2 1 .2.9 19.3-24.2-1.3-17.3-1.3-17.3z"/>
      <path fill="#fff" d="M31.4 47a11.8 11.8 0 0 0 6 7.2q4.6 2.5 12.4 2.5T61 54.6a7.1 7.1 0 0 0 3.9-6.6 5.3 5.3 0 0 0-1-3.2 7.9 7.9 0 0 0-3.5-2.4 27.3 27.3 0 0 0-6.5-1.6 75.3 75.3 0 0 0-10.1-.6V34q4.6 0 8-.3a44.1 44.1 0 0 0 5.6-.8 14.8 14.8 0 0 0 3.7-1.3 7.2 7.2 0 0 0 2.2-1.7 4.9 4.9 0 0 0 1-1.9 8.6 8.6 0 0 0 .3-2.1 5.2 5.2 0 0 0-1-3.1 7.9 7.9 0 0 0-2.9-2.4 18.5 18.5 0 0 0-4.9-1.6 36 36 0 0 0-6.8-.6 31 31 0 0 0-7.2.7 17.2 17.2 0 0 0-5.2 2.1 9.9 9.9 0 0 0-3.3 3.3 10.6 10.6 0 0 0-1.4 4.3h-8.7a18.3 18.3 0 0 1 1.8-6.3 14.9 14.9 0 0 1 4.7-5.3 24 24 0 0 1 7.8-3.6A43.6 43.6 0 0 1 49 12.1a49.3 49.3 0 0 1 10.6 1 25.9 25.9 0 0 1 7.5 2.8 12.6 12.6 0 0 1 4.5 4.2 9.9 9.9 0 0 1 1.5 5.2 8.7 8.7 0 0 1-.7 3.4 11.5 11.5 0 0 1-2 3.2 14.3 14.3 0 0 1-3.2 2.6 17.8 17.8 0 0 1-4.3 1.9 18.6 18.6 0 0 1 4.5 1.9 14 14 0 0 1 3.3 2.7 10.9 10.9 0 0 1 2.1 3.3 10.2 10.2 0 0 1 .7 3.7 11.7 11.7 0 0 1-1.6 6 14.3 14.3 0 0 1-4.6 4.7 24.7 24.7 0 0 1-7.4 3.1 40.5 40.5 0 0 1-10 1.1 51 51 0 0 1-10.2-.9 28.5 28.5 0 0 1-7.6-2.6 16.8 16.8 0 0 1-5.2-4.1 16.3 16.3 0 0 1-3-5.5zm-6.1-15.6h9.4q0-5.2 3.7-7.7t10.4-2.5l5 .3a22.9 22.9 0 0 1 3.9.8 7.9 7.9 0 0 1 2.6 1.2 2 2 0 0 1 .9 1.6 3.6 3.6 0 0 0-1.5-1l-2.7-.8-3.7-.5-4.5-.2q-6.5 0-9.6 2.4a7.9 7.9 0 0 0-3 6.5V33H25.3zm3.3 29.5a32.9 32.9 0 0 0 9.1 3.6 47.3 47.3 0 0 0 11 1.2 50.5 50.5 0 0 0 10.7-1.1 29.7 29.7 0 0 0 8.8-3.3 17.3 17.3 0 0 0 5.9-5.5 14.1 14.1 0 0 0 2.2-7.8 11.2 11.2 0 0 0-.7-3.9 12.1 12.1 0 0 0-1.8-3.3 12.4 12.4 0 0 0-2.7-2.6 15.7 15.7 0 0 0-3.5-1.8q8.3-3.5 8.3-10.8a12.5 12.5 0 0 0-1.8-6.7 13.4 13.4 0 0 0-5.7-4.9 14.2 14.2 0 0 1 4 1.8 10.8 10.8 0 0 1 4.5 6 13.2 13.2 0 0 1 .5 3.8 12 12 0 0 1-1.5 6 13.7 13.7 0 0 1-4.9 4.8A12.8 12.8 0 0 1 77.8 48a16 16 0 0 1-2 7.9 17.6 17.6 0 0 1-5.7 6.1 29.2 29.2 0 0 1-9.1 3.8 50.3 50.3 0 0 1-12.2 1.4 39.7 39.7 0 0 1-11.9-1.6 20.8 20.8 0 0 1-8.3-4.7zM36.3 48a11.7 11.7 0 0 0 1.5 2l1.7 1.7 2 1.3 1.9.8a13.8 13.8 0 0 1-5.2-1.8 10 10 0 0 1-3.3-3.4zm9.7-5h2a35.9 35.9 0 0 1 5.4.4 31.1 31.1 0 0 1 4.4 1 12.5 12.5 0 0 1 3 1.3q1.1.7 1.1 1.3l-1.3-.6-3.1-.8-4.5-.9a46.9 46.9 0 0 0-5.4-.3H46z"/>
    </g>
    <g id="head">
      <path fill="#835235" d="M110.4 63.2l-4-26c-.4-2.8-3.1-2.8-5-.1-8 11.6-23.8 37.5-11 45z"/>
      <path fill="#fff" d="M106.5 62.2l-3.1-20.1c-.2-1.3-1.5-1.4-2.4-.1-5.3 7.5-18.7 28.1-8.9 33.8z"/>
      <path fill="#835235" d="M153 75.8L175.8 59c1.5-1.1 2.8.1 2.5 2.3-2.1 12.5-9.1 45.8-24.3 41.9z"/>
      <path fill="#fff" d="M155 79l16.4-12.1c1.1-.8 2 .1 1.8 1.6-1.5 9-6.6 33.1-17.6 30.2z"/>
      <path fill="#a76d45" d="M150.6 71.5c-13.2-13.7-38.2-19.9-54.2-7.5a21.4 21.4 0 0 0-6.7 8.3c-1.6 3.6-2.4 7.5-4.1 11.1s-4.1 8.4-5.7 12.8c-2.7 7.6-2.3 15.2-.5 23 .9 3.7 2.8 6.8 4.1 10.3a5.3 5.3 0 0 0 1.1 1.9c2.3 2.4 12.6-.5 15.6-.9l10.4-1.6c1.5 3.6 4.2 6 6.2 9.2a17.7 17.7 0 0 0 4.1 4.7 11 11 0 0 0 4.1 2.1c7.3 1.8 13.9-5.4 18-10.5s5.2-9.2 7.8-14 7.2-11.4 8.8-18.2c2.5-10.9-1.2-22.8-9-30.7z"/>
      <circle cx="102.4" cy="97.9" r="11.7" fill="#482f21"/>
      <circle cx="133.8" cy="109.6" r="11.7" fill="#482f21"/>
      <path fill="#fff" d="M103.4 95a7.1 7.1 0 0 1 4.3 2.3c-.1-2.4-1.5-4.6-6.1-5.7-.1-.3-10.1 6.8-.2 12.6-5-4.5 1.9-9.5 2-9.2z"/>
      <path fill="#fae4d7" d="M137.9 90.4l-12.1-5.6-18.1 46.6c1.5 3.2 4.1 5.4 6.1 8.4a17.7 17.7 0 0 0 3.9 4.3 11.3 11.3 0 0 0 3.9 2c4 1.1 7.8-.7 10.9-3.1 5.9-8.6-8.1-32.1-8.1-32.1a21.3 21.3 0 0 0 3.3-4.6l11.4-9.3c2.2-1.8-8.7-2.9-1.2-6.6z"/>
      <path fill="#e9cfc2" d="M125.8 84.8l-8.9-4.2c.6 11.7-5.9.6-5.7 3.5l1 13.7a21.1 21.1 0 0 0-2.1 5.8s-2.2 2.4-2.2 2.3c-31.5.7-26.6 22-25.3 25.1a5.1 5.1 0 0 0 1 1.7c2.3 2.2 11.7 0 14.5-.3l9.6-1.1 18.1-46.6z"/>
      <path fill="#fff" d="M130 107.3c1.4-.9 3.4-1.1 6.3.6.3-.1 2.5 10.5-7.8 7.8l.3.2c13.4 3.8 10.3-9.4 10-9.2-4.5-2.4-7.2-1.4-8.8.6z"/>
      <path fill="#231c15" d="M106.5 112.1a1.1 1.1 0 0 1 1.3-1.5c3.3.7 9.9 2.7 13.9 8.2.9 1-7.2 3.4-10.1 4.3a1.1 1.1 0 0 1-1.4-.7z"/>
      <path fill="#fff" d="M117.5 118s-.8-3-2.9-1.2c-.1 0-.1 3.1 2.7 1.6.1 0 .2-.4.2-.4z"/>
    </g>
  </g>
</svg>
