<svg id="super-dog-left" xmlns="http://www.w3.org/2000/svg" viewBox="0 0 422.27 473.21"><defs><style>.cls-1{fill:#2d2827;}.cls-2{fill:#383130;}.cls-3{fill:#3e3635;}.cls-4{fill:#fff;}.cls-5{fill:#231c15;}.cls-6{fill:#e9e4e3;}.cls-7{fill:#ba1930;}</style></defs><title>super-dog-right</title><path class="cls-1" d="M334.7,282.74l-70.07-28.17c33.8-11.2,74.54-12.2,97.91,32.62l39.2,2.33S376,328.84,375.89,329.58c-2.6,12.1-25.66,118.13-40.6,139.6a5.53,5.53,0,0,1-9.06.06c-5.56-7.74-11.31-25.75-15.29-40.06a5.51,5.51,0,0,0-10.63,0L289.46,469.1a5.48,5.48,0,0,1-7.58,3.59c-6.93-3.35-11-11.85-13.94-18.47-6.65-14.88-10.37-30.76-13.55-46.69a4.14,4.14,0,0,0-6.18-2.77l-.2.13c-17.69,13-43,31.91-41.37,56.73.29,4.37-2.3,9.63-7.65,7.08C167.69,369.34,334.7,282.74,334.7,282.74Z"/><path class="cls-2" d="M141.19,401.76c-.22,1.31-.42,2-.58,1.85-49.9-47.59,3.68-34,3.68-34v0c7.26-23.8,26.07-52.13,63.09-85.45a6.45,6.45,0,0,1,.88-.67c3-1.88,27.08-19.25,56.36-29l70.07,28.17s-167,86.59-135.7,185.95C180.26,459.77,146,438.46,141.19,401.76Z"/><path class="cls-3" d="M131,110.26a8.88,8.88,0,0,1,8.72-2.27l2.52.71,80.89,22.77,11.29,3.18-.07.62c4.92-9.77,14.93-17.4,26.14-23.23l74.16,170.72h0c-3.77,9.3-10.9,15.53-16.09,23.86a46,46,0,0,1-10.53,12.16,28.58,28.58,0,0,1-10.7,5.33c-19,4.57-36.15-14.08-46.77-27.17-12.75-15.72-18.29-32.47-27.34-50.13-3.21-6.26-7.8-14.51-13.77-20.1-30.39,5.91-50-16.5-62.51-43.72-10.53-23-16-49.33-18.49-65A8.82,8.82,0,0,1,131,110.26Z"/><path class="cls-1" d="M260.54,112c18.26-9.5,39.75-14.27,47.84-15.82l26.43-81.42a13.14,13.14,0,0,1,21.63-5.39c5.33,5.16,11.55,11.53,17.84,18.73,13.13,15,26.52,33.66,32.64,52.37,6.79,20.75,4.63,41.59-16.77,57.74.13.62.26,1.24.42,1.86,5.13,20.27,16.63,38.12,23.62,57.7s6.1,39.57,1.23,59.7c-2.3,9.52-7.15,17.72-10.59,26.82a13.85,13.85,0,0,1-2.73,5c-6.08,6.16-32.81-1.18-40.52-2.29q-13.47-2-26.88-4.27h0Z"/><path class="cls-4" d="M364.9,180.81c-4.43-4-8.26-5.5-11.52-5.57,5.09-3.44,12.06-3.83,21.21,4.32.83-.25,1,31.57-26.26,19.57C365.7,202.89,365.54,180.62,364.9,180.81Z"/><path class="cls-4" d="M241.61,226.61c-3.56,2.45-5.83,7.12-4.63,15.65-.58.48,22.92,16.28,26.28-11.42.22.41.32.78.19,1-3.75,35.91-32.52,15.66-31.8,15.09C230.08,233.81,235.22,228.46,241.61,226.61Z"/><path class="cls-4" d="M324,94.81,346,27.31a6.45,6.45,0,0,1,10.52-2.75c19.8,18.37,69.06,70.55,24.2,98.94Z"/><path class="cls-4" d="M222.33,147,154,127.78a6.45,6.45,0,0,0-8.12,7.22c4.29,26.66,20.37,96.6,68.88,75Z"/><path class="cls-5" d="M337.53,227.73a2.94,2.94,0,0,0-3.34-3.9c-8.51,1.74-25.8,6.89-36.1,21.21-2.39,2.6,18.64,8.91,26.2,11.07a2.94,2.94,0,0,0,3.57-1.82Z"/><path class="cls-4" d="M308.95,243s2.16-7.87,7.54-3.07c.2-.06.24,8.15-7.14,4.07C309.12,244,308.95,243,308.95,243Z"/><path class="cls-4" d="M326.63,348.65s16.1,61.87-13.89,59.15C312,407.12,284.85,403.72,326.63,348.65Z"/><path class="cls-4" d="M274.14,147.86l29.65-13.58a81.59,81.59,0,0,0-4,20.9c-.08,1.45.17,3.32,1.57,3.68,1,.25,2-.49,2.74-1.18L319.57,144a267.45,267.45,0,0,1-1.51,41.87c-.55,4.76-1.16,9.88,1.09,14.11,3.49,6.54,12,8.06,19.34,9.05,15.44,2.09,31.26,5.34,44,14.27,17.11,12,26.54,34,23.37,54.68-.85,5.52-3.12,11.61-8.33,13.65-3.13,1.22-6.64.69-9.95.13l-46.88-7.86c-2-.34-4.23-.66-6.09.23L276.47,148.72Z"/><path class="cls-6" d="M330.84,288.28c-7.33,12.24-14.17,26-26.86,32.51a30.37,30.37,0,0,1-21.68,2.45,26.49,26.49,0,0,1-16.75-13.73c-3.44-7.16-3.2-15.51-2.23-23.4a143.11,143.11,0,0,1,7.86-32.25c3.79-10.21,8.36-21,16.13-28.88a17.22,17.22,0,0,0,2.2-3.09c1-4.92-1.12-11.17-4.26-15-1.43-1.76-3.88-2.3-5.89-3.15q-4.07-1.74-8-3.84a98.32,98.32,0,0,1-27.26-21.71l20.41-5c1.38-.34,3.07-1.08,3-2.49,0-1-1-1.7-1.88-2.22a87.15,87.15,0,0,0-18.52-8.17l27-12.36,2.33.85,58.18,135.37C332.92,284.92,331.83,286.64,330.84,288.28Z"/><path class="cls-5" d="M338.88,232.88a2.94,2.94,0,0,0-3.34-3.9c-8.51,1.74-25.8,6.89-36.1,21.21-2.39,2.6,18.64,8.91,26.2,11.07a2.94,2.94,0,0,0,3.57-1.82Z"/><path class="cls-4" d="M310.3,248.17s2.16-7.87,7.54-3.07c.2-.06.24,8.15-7.14,4.07C310.47,249.15,310.3,248.17,310.3,248.17Z"/><path class="cls-7" d="M31.19,252.48c16.7.74,26.3,9.4,41,15.4,13.38,5.46,28.47,7.66,42.75,5,4.93-.93,9.58-3,14.18-5,11.65-5.09,23.22-10.9,35.13-15.35,10.32-3.85,20.62-1.6,30.83,2l38.35,13.62c17.89,42.46,61.22,51.33,86.31,52.75l.13-.21h18.67l-15.33,18.82H307.87L317,325.24q-51.88,10.87-103.64,22.23-17.67,3.9-35.34,7.79c-3.57.79-30.13,4.19-30.42,5.19,3.91-13.71-9.91-6.45-16.46-6.45-10.75,1.78-21.84,3.79-32.75,2.34-4.93-.65-18.92-11.18-18.48-16.85a2,2,0,0,1,1-1.27c2.7-2,19.85-11.77,16.16-15.22-14.1-13.19-30.44-23-45.58-34.88q-11.51-9-22.92-18.16c-5.36-4.29-17.88-11.1-19.88-17.55C14.06,249,24.87,252.2,31.19,252.48Z"/><path class="cls-7" d="M385.69,314.17c-.61.94-9.8,15.42-9.8,15.42s-24-1.32-35.11-7.43l16.59,10.57V351.4l-18.82-15.33V320.73S365.18,328.93,385.69,314.17Z"/></svg>