<svg xmlns="http://www.w3.org/2000/svg" id="wally" viewBox="0 0 256 188" width="256" height="188"><defs><style>.cls-1{fill:none;stroke:#fff;stroke-miterlimit:10}</style></defs><path d="M44 18.7c-1-5.3-8.38-7.14-13-4.43s-7 8.13-8.5 13.31c-8.68 30.1-.16 62.13.72 93.44.24 8.48.28 18 6.21 24 1.86 1.9 4.73 3.36 7.12 2.2A7.77 7.77 0 0 0 39 145a111.2 111.2 0 0 0 15-24 39.93 39.93 0 0 0 11.06 30c1 1 2.21 2 3.6 1.84s2.3-1.47 3-2.68c6.74-11.78 7.52-25.92 11.27-39 4.82-16.75 14.55-31.67 20.56-48a124.27 124.27 0 0 0 6-23.14c.95-5.9 1.45-12.22-1.16-17.6S99 13.24 93.58 15.83c-3.33 1.6-5.27 5.07-7 8.36a383.59 383.59 0 0 0-25.89 64c-.36-2.41-1.15-4.93-3-6.46s-5.15-1.53-6.44.54a249.3 249.3 0 0 1-3.78-47.72c.12-6.55.43-13.46-2.47-19.39M95.21 151c-2.3 3.55-8.76 2.75-10.11-1.26a10.61 10.61 0 0 1-.2-4.58c2.2-19.53 11.59-37.4 20.82-54.75 2.48-4.67 5.1-9.49 9.36-12.62s10.66-4 14.67-.56c4.23 3.65 4.08 10.11 4 15.7a124.3 124.3 0 0 0 3.86 33.62c1 3.94 2.23 8 1.75 12s-3.2 8.15-7.22 8.75c-4.82.72-9-3.84-10.3-8.54s-.79-9.72-1.7-14.51a9.68 9.68 0 0 0-2.57-5.45c-2.42-2.23-6.42-2-9.12-.14s-4.22 5.06-4.91 8.28a22.14 22.14 0 0 0 .71 11.8c.79 2.3 2 4.57 1.85 7-.26 4.56-6.29 7.62-10.12 5.13" class="cls-1"/><path d="M119 92.13a6.72 6.72 0 0 0-4.89 5.87c-.07 2.73 2.52 5.38 5.2 4.89 2.36-.43 3.87-3 3.86-5.38a12.31 12.31 0 0 0-2.54-6.61m36.58-65.3c-.72-2.2-4-2.57-5.83-1.16s-2.55 3.82-3 6.1c-1.82 9.25-1.09 18.79-1.65 28.2-1.33 22.38-9.83 45.6-1.69 66.49 2.2 5.64 5.52 10.76 8.82 15.83.82 1.26 1.91 2.67 3.41 2.63 1.7 0 2.7-1.89 3.24-3.5 4.84-14.49 1-30.28 1.63-45.54.47-11.32 3.42-22.39 4.59-33.66s.34-23.36-6-32.76m27.53-.37c-.72-2.2-4-2.57-5.83-1.16s-2.55 3.82-3 6.1c-1.82 9.25-1.09 18.79-1.65 28.2-1.33 22.38-9.83 45.6-1.69 66.49 2.2 5.64 5.52 10.76 8.82 15.83.82 1.26 1.91 2.67 3.41 2.63 1.7 0 2.7-1.89 3.24-3.5 4.84-14.49 1-30.28 1.63-45.54.47-11.32 3.42-22.39 4.59-33.66s.34-23.36-6-32.76" class="cls-1"/><path d="M220.07 81.68a3.9 3.9 0 0 0-2-4.3 8.68 8.68 0 0 0-5-.75 9.15 9.15 0 0 0-3.55.9c-3.66 2-4 7-3.88 11.13.28 8.43.67 17 3 25.07s6.71 15.91 13.61 20.76a3.55 3.55 0 0 1 1.41 1.44 3.19 3.19 0 0 1 .05 1.64 39.27 39.27 0 0 1-43.38 33.16c-4.34-.51-8.6-1.74-13-1.8a5.29 5.29 0 0 0-3.15.69c-1.3.91-1.64 2.69-1.51 4.27A10.21 10.21 0 0 0 168 182c3.74 1.91 8.22 1.29 12.36.56 8.75-1.55 17.63-3.49 25.28-8a82.86 82.86 0 0 0 11.92-9.16c6.25-5.43 12.77-11.26 15.29-19.15a72.08 72.08 0 0 0 1.89-9.84c2.77-16.11 11.86-30.87 12.88-47.18.16-2.52 0-5.28-1.56-7.24-1.88-2.29-5.17-2.74-8.13-2.83-2.35-.07-5 .14-6.47 2s-.95 4.42-.54 6.7a69 69 0 0 1 1.06 10 15.29 15.29 0 0 1-.88 6.62 6.09 6.09 0 0 1-5.08 3.87 2.87 2.87 0 0 1-1.88-.55 4 4 0 0 1-1.13-2.3 38.43 38.43 0 0 1-.35-15.26 15.56 15.56 0 0 0 .46-5.17c-.28-1.72-1.48-3.44-3.21-3.66M18.76 44.54a100.1 100.1 0 0 0 12-2.66M19.05 53.49q7.59-1.64 15.16-3.42M19 62.53a117.29 117.29 0 0 0 15.74-3.32M19 72.49l15.24-3.54m-14.3 9.18c5.61.92 10.93-2.62 16.56-3.43M21.05 87.38a51.81 51.81 0 0 1 16.45-3.87M22.78 94.85L45 89.21m-21.52 14.23q12.52-3.31 25.27-5.93m-25.24 13.57a78.66 78.66 0 0 0 15.71-4.87M23.24 119c5.31.23 10.47-1.56 15.48-3.33m-12.96 12.16a31.42 31.42 0 0 0 7.67-2.47m-6.36 10.07l9.14-3.31M22.48 35.46a61 61 0 0 1 7.79-2.88m-5.58-5.97q5.49-2.16 11.06-4.1M83.24 34.7a11.3 11.3 0 0 1 4.26-.44M78 44.83q10.75.1 21.49-.46M72.77 54.6a164.13 164.13 0 0 1 19-2.86m-21.03 12.4a113.91 113.91 0 0 1 14.76-.36m-18.25 9.45l13.5-2.51M60 84.11q8.91-.66 17.73-2.17m-22.24 42.79a37.85 37.85 0 0 1 6.76-1.49m-5.99 9.55l11.47-3.34m31.52-22.95a20.89 20.89 0 0 0 5.25-1.25m-9.28 8.95a9.93 9.93 0 0 1 4.29-1.68M92.25 121a6.87 6.87 0 0 0 3.75-.75m-8.28 13.95a23.76 23.76 0 0 1 8.78-3.2m-9.73 13.3l4.48-1.79M109 87.76a6.18 6.18 0 0 0 3.25-.77m-7.5 9.01l2.5-.27m40.47-51.08a38.34 38.34 0 0 1 10-1.37M149.77 52c-.23 0-.31-.34-.17-.52a.93.93 0 0 1 .62-.26l5.78-.92m-6.77 9.7a31.88 31.88 0 0 1 8.27-3m-9.25 10.51L153 67m-5.75 8.24l9.5-2.25M145 83.55a54.44 54.44 0 0 1 8-1.55m-7.75 7.25a29.79 29.79 0 0 0 5-.5M141 96.42l9.5-1.48m-8.25 8.06a58 58 0 0 0 8.49-1m-8.51 8.95A54.84 54.84 0 0 1 152 108m-7.22 9.64a58.73 58.73 0 0 0 9.46-2.9M145.75 125l8.5.27m-3.51 8.66l4.26-.43m24-90.97a33.52 33.52 0 0 0 7.74-2.53m-7.01 11.2l9.27-3.68m-10 14.22a25.47 25.47 0 0 0 8.75-3m-10.24 12.79l10.25-3M174.25 83a44 44 0 0 1 13-4m-12.76 13.23a54.93 54.93 0 0 1 7.26-2m-8.01 9.99l12.75-3m-12.24 10.05a15.79 15.79 0 0 0 6.49-2.28m-6.99 10.26a57.77 57.77 0 0 0 9.75-2m-9.25 9.75a47 47 0 0 0 9.23-2.09m-3.73 7.86A37.64 37.64 0 0 0 186 128m21.75-41a7.5 7.5 0 0 1 3-.74M206 95.43l5.76-2.49m-3.53 11.77l5.26-2m-3.23 9.07a11.61 11.61 0 0 0 4-1.54m-2.49 9.61a21 21 0 0 0 8.45-3.64M216 126a16.78 16.78 0 0 0 5.24-1.31m-.98 6.1l6.5-.77m-5.52 19.46l2.72-1.55m-48.45 23.51a31.21 31.21 0 0 1 6.5 2m3.99-1.89l6.52 1.4m4.98-2.7h4m3.75-5.5h3.25m2.5-4.35l5.51-.4m.99-5.24l2.74.56" class="cls-1"/></svg>